<?xml version="1.0" encoding="UTF-8" standalone="no"?>
<svg
   xmlns:dc="http://purl.org/dc/elements/1.1/"
   xmlns:cc="http://creativecommons.org/ns#"
   xmlns:rdf="http://www.w3.org/1999/02/22-rdf-syntax-ns#"
   xmlns:svg="http://www.w3.org/2000/svg"
   xmlns="http://www.w3.org/2000/svg"
   xmlns:sodipodi="http://sodipodi.sourceforge.net/DTD/sodipodi-0.dtd"
   xmlns:inkscape="http://www.inkscape.org/namespaces/inkscape"
   viewBox="0 0 100 100"
   x="0px"
   y="0px"
   id="svg4136"
   version="1.1"
   inkscape:version="0.91 r13725"
   sodipodi:docname="1.svg"
   width="100"
   height="100">
  <metadata
     id="metadata4150">
    <rdf:RDF>
      <cc:Work
         rdf:about="">
        <dc:format>image/svg+xml</dc:format>
        <dc:type
           rdf:resource="http://purl.org/dc/dcmitype/StillImage" />
        <dc:title></dc:title>
      </cc:Work>
    </rdf:RDF>
  </metadata>
  <defs
     id="defs4148" />
  <sodipodi:namedview
     pagecolor="#ffffff"
     bordercolor="#666666"
     borderopacity="1"
     objecttolerance="10"
     gridtolerance="10"
     guidetolerance="10"
     inkscape:pageopacity="0"
     inkscape:pageshadow="2"
     inkscape:window-width="1680"
     inkscape:window-height="987"
     id="namedview4146"
     showgrid="false"
     inkscape:zoom="6.496"
     inkscape:cx="50"
     inkscape:cy="54.364702"
     inkscape:window-x="1672"
     inkscape:window-y="-8"
     inkscape:window-maximized="1"
     inkscape:current-layer="svg4136" />
  <path
     d="m 19.9375,4.9999998 c -8.232483,0 -14.9375002,6.7050222 -14.9375002,14.9375002 l 0,60.125 C 4.9999998,88.294978 11.705017,95 19.9375,95 l 60.125,0 C 88.294974,95 95,88.294976 95,80.0625 l 0,-60.125 C 95,11.705024 88.294974,4.9999998 80.0625,4.9999998 l -60.125,0 z m 0,2.71875 0.279297,0 -12.4980472,12.4921882 0,-0.273438 c 0,-0.241406 0.021454,-0.476965 0.035156,-0.714844 L 19.226562,7.7539058 c 0.236603,-0.01355 0.470847,-0.03516 0.710938,-0.03516 z m 0.761719,0 0.964843,0 -13.9453122,13.9375002 0,-0.960938 L 20.699219,7.7187498 Z m 1.419922,0 0.974609,0 -15.3750002,15.3671882 0,-0.96875 L 22.119141,7.7187498 Z m 1.458984,0 0.960937,0 -16.8203122,16.8125002 0,-0.958984 L 23.578125,7.7187498 Z m 1.4375,0 0.951172,0 -18.2480472,18.2441412 0,-0.953125 L 25.015625,7.7187498 Z m 1.457031,0 0.933594,0 -19.6875002,19.6777342 0,-0.933593 L 26.472656,7.7187498 Z m 1.414063,0 0.955078,0 -21.1230472,21.1152342 0,-0.953125 L 27.886719,7.7187498 Z m 1.4375,0 0.964843,0 -22.5703122,22.5585942 0,-0.960938 L 29.324219,7.7187498 Z m 1.419922,0 0.966797,0 -23.9921882,23.9882812 0,-0.966797 L 30.744141,7.7187498 Z m 1.449218,0 0.958985,0 -25.4335942,25.4199222 0,-0.957031 L 32.193359,7.7187498 Z m 1.435547,0 0.951172,0 -26.8613282,26.8554692 0,-0.953125 L 33.628906,7.7187498 Z m 1.457032,0 0.933593,0 -28.3007812,28.2871092 0,-0.933593 L 35.085938,7.7187498 Z m 1.414062,0 0.955078,0 -29.7363282,29.7265622 0,-0.951171 L 36.5,7.7187498 Z m 1.4375,0 0.964844,0 -31.1835942,31.1679692 0,-0.960938 L 37.9375,7.7187498 Z m 1.419922,0 0.978516,0 -32.6171882,32.6113282 0,-0.976562 L 39.357422,7.7187498 Z m 1.460937,0 0.958985,0 -34.0585942,34.0410162 0,-0.957032 L 40.818359,7.7187498 Z m 1.435547,0 0.951172,0 -35.4863282,35.4785162 0,-0.955078 L 42.253906,7.7187498 Z m 1.457032,0 0.933593,0 -36.9257812,36.9082032 0,-0.933594 L 43.710938,7.7187498 Z m 1.414062,0 0.955078,0 -38.3613282,38.3476562 0,-0.949218 L 45.125,7.7187498 Z m 1.4375,0 0.964844,0 -39.8085942,39.7910162 0,-0.962891 L 46.5625,7.7187498 Z m 1.419922,0 0.966797,0 -41.2304692,41.2226562 0,-0.964844 L 47.982422,7.7187498 Z m 1.449219,0 0.958984,0 -42.6718752,42.6484382 0,-0.955079 L 49.431641,7.7187498 Z m 1.435547,0 0.951171,0 -44.0996092,44.0898442 0,-0.955078 L 50.867188,7.7187498 Z m 1.457031,0 0.933593,0 -45.5390622,45.5175782 0,-0.935547 L 52.324219,7.7187498 Z m 1.414062,0 0.955078,0 -46.9746092,46.9589842 0,-0.949218 L 53.738281,7.7187498 Z m 1.4375,0 0.964844,0 -48.4218752,48.4003912 0,-0.962891 L 55.175781,7.7187498 Z m 1.419922,0 0.974609,0 -49.8515622,49.8300782 0,-0.960937 L 56.595703,7.7187498 Z m 1.460938,0 0.958984,0 -51.2968752,51.2695312 0,-0.955078 L 58.056641,7.7187498 Z m 1.435547,0 0.951171,0 -52.7246092,52.7128912 0,-0.955079 L 59.492188,7.7187498 Z m 1.457031,0 0.933593,0 -54.1640622,54.1386722 0,-0.935547 L 60.949219,7.7187498 Z m 1.414062,0 0.955078,0 -55.5996092,55.5820312 0,-0.949219 L 62.363281,7.7187498 Z m 1.4375,0 0.964844,0 -57.0468752,57.0214842 0,-0.96289 L 63.800781,7.7187498 Z m 1.419922,0 0.966797,0 -58.4687502,58.4589842 0,-0.964843 L 65.220703,7.7187498 Z m 1.449219,0 0.958984,0 -59.9101562,59.8769532 0,-0.951172 L 66.669922,7.7187498 Z m 1.435547,0 0.951172,0 -61.3378912,61.3242192 0,-0.957031 L 68.105469,7.7187498 Z m 1.457031,0 0.933594,0 -62.7773442,62.7480472 0,-0.935547 L 69.5625,7.7187498 Z m 1.414062,0 0.955079,0 -64.2128912,64.1914062 0,-0.947265 L 70.976562,7.7187498 Z m 1.4375,0 0.964844,0 -65.6601562,65.6308592 0,-0.96289 L 72.414062,7.7187498 Z m 1.419922,0 0.978516,0 -67.0937502,67.0820312 0,-0.976562 L 73.833984,7.7187498 Z m 1.460938,0 0.958984,0 -68.5351562,68.4960942 0,-0.949219 L 75.294922,7.7187498 Z m 1.435547,0 0.951172,0 -69.9628912,69.9492192 0,-0.958985 L 76.730469,7.7187498 Z m 1.457031,0 0.933594,0 -71.4023442,71.3691412 0,-0.9375 L 78.1875,7.7187498 Z m 1.414062,0 0.460938,0 c 0.158963,0 0.313241,0.01747 0.470703,0.02344 L 45.759766,42.503906 c -1.35822,0.769924 -2.483572,1.89595 -3.253907,3.253906 L 7.7402342,80.511719 C 7.7347942,80.361391 7.7187502,80.214193 7.7187502,80.0625 l 0,-0.474609 L 79.601562,7.7187498 Z m 1.392579,0.04687 c 0.291344,0.02189 0.578088,0.05583 0.863281,0.09766 L 48.109375,41.597656 c -0.485164,0.108764 -0.955822,0.254623 -1.40625,0.441406 L 80.994141,7.7656248 Z M 18.71875,7.7792968 7.7792967,18.714844 c 0.036701,-0.371871 0.096931,-0.736492 0.1660156,-1.097656 L 17.623047,7.9433588 c 0.360491,-0.06877 0.724556,-0.12755 1.095703,-0.164062 z m 63.533203,0.144531 c 0.268104,0.04829 0.531332,0.110392 0.792969,0.175781 L 49.744141,41.396484 c -0.36197,0.01066 -0.71697,0.04564 -1.066407,0.09961 L 82.251953,7.9238278 Z M 16.960938,8.0976558 8.097656,16.958984 c 0.1175554,-0.47107 0.2594342,-0.931516 0.4296876,-1.378906 L 15.582031,8.5273438 c 0.447432,-0.170192 0.907798,-0.312201 1.378907,-0.429688 z m 66.466796,0.09961 c 0.246093,0.07006 0.487143,0.149593 0.726563,0.234375 L 51.105469,41.462891 c -0.292154,-0.03752 -0.588118,-0.06086 -0.888672,-0.06836 L 83.427734,8.1972658 Z m 1.076172,0.361328 c 0.225835,0.08786 0.446994,0.1825614 0.666016,0.2832044 L 52.302734,41.703125 c -0.254729,-0.07058 -0.513716,-0.128592 -0.777343,-0.175781 L 84.503906,8.5585938 Z M 14.757812,8.8769542 8.878906,14.751954 c 0.4309537,-0.920495 0.9632142,-1.78352 1.59961,-2.560547 l 1.716796,-1.714844 c 0.777712,-0.6364988 1.641211,-1.1688498 2.5625,-1.5996088 z m 70.75586,0.128906 c 0.206208,0.102706 0.410051,0.208455 0.609375,0.322266 L 53.369141,42.068359 c -0.222825,-0.09478 -0.451617,-0.177817 -0.683594,-0.253906 L 85.513672,9.0058592 Z m 0.910156,0.503907 c 0.196844,0.120057 0.394725,0.238457 0.583984,0.36914 L 54.322266,42.554688 c -0.202454,-0.117785 -0.410555,-0.2268 -0.623047,-0.328126 L 86.423828,9.5097662 Z m 0.859375,0.5761718 c 0.185804,0.136205 0.375173,0.267792 0.552735,0.414062 L 55.1875,43.132812 C 55.003309,42.99346 54.81641,42.858845 54.621094,42.734375 L 87.283203,10.085938 Z m 0.791016,0.628906 c 0.173408,0.150662 0.345186,0.302787 0.509765,0.46289 L 55.962891,43.787109 C 55.798884,43.629665 55.631113,43.476217 55.455078,43.332031 L 88.074219,10.714844 Z m 0.751953,0.705078 c 0.158747,0.163332 0.309529,0.333841 0.458984,0.505859 L 56.658203,44.533203 C 56.514601,44.358508 56.361761,44.192095 56.205078,44.029297 L 88.826172,11.419922 Z m 0.683594,0.757812 c 0.143387,0.17455 0.272572,0.360479 0.40625,0.542969 l -32.65625,32.65039 C 57.136542,45.178213 57.00494,44.992555 56.867188,44.810547 L 89.509766,12.177734 Z m 0.623046,0.832032 c 0.127698,0.185621 0.243835,0.379375 0.361329,0.572265 L 57.767578,46.291016 c -0.09997,-0.20893 -0.206372,-0.414078 -0.322266,-0.613282 l 32.6875,-32.667968 z m 0.541016,0.871093 c 0.116903,0.204908 0.224915,0.414782 0.330078,0.626953 l -32.818359,32.80664 c -0.07701,-0.234775 -0.161663,-0.466012 -0.257813,-0.691406 L 90.673828,13.880859 Z m 0.486328,0.953125 c 0.102265,0.222763 0.198075,0.447934 0.28711,0.677735 l -32.97461,32.958984 c -0.04792,-0.26704 -0.107766,-0.529215 -0.179687,-0.787109 l 32.867187,-32.84961 z m 0.408203,1.013672 c 0.08501,0.240185 0.166137,0.481619 0.236329,0.728516 L 58.605469,49.769531 c -0.008,-0.302556 -0.03187,-0.600522 -0.07031,-0.894531 l 33.0332,-33.027344 z m 0.333985,1.111328 c 0.06463,0.258968 0.123999,0.519856 0.171875,0.785157 L 58.509766,51.291016 c 0.05181,-0.343821 0.08579,-0.692957 0.0957,-1.048828 L 91.902344,16.958984 Z m 0.236328,1.201172 c 0.04095,0.282015 0.07425,0.565502 0.0957,0.853516 L 57.96875,53.273438 c 0.183419,-0.445933 0.328462,-0.910827 0.435547,-1.390626 L 92.138672,18.160156 Z m 0.121094,1.332032 c 0.0053,0.149036 0.02148,0.294935 0.02148,0.445312 l 0,0.466797 -71.910156,71.876953 -0.433594,0 c -0.162254,0 -0.319781,-0.01722 -0.480469,-0.02344 L 54.230469,57.501953 C 55.595941,56.730308 56.727685,55.599418 57.5,54.234375 L 92.259766,19.492188 Z m 0.02148,1.396484 0,0.953125 -70.464844,70.439453 -0.943359,0 71.408203,-71.392578 z m 0,1.433594 0,0.964843 -69.025391,68.994141 -0.964843,0 69.990234,-69.958984 z m 0,1.423828 0,0.978515 -67.568359,67.556641 -0.976563,0 68.544922,-68.535156 z m 0,1.455078 0,0.957031 -66.160156,66.123047 -0.949219,0 67.109375,-67.080078 z m 0,1.4375 0,0.953125 -64.703125,64.689453 -0.958984,0 65.662109,-65.642578 z m 0,1.451172 0,0.935547 -63.285156,63.255859 -0.939453,0 64.224609,-64.191406 z m 0,1.421875 0,0.951172 -61.837891,61.818359 -0.945312,0 62.783203,-62.769531 z m 0,1.43164 0,0.964844 -60.400391,60.373047 -0.964843,0 61.365234,-61.337891 z m 0,1.425782 0,0.966797 -58.955078,58.945312 -0.964844,0 59.919922,-59.912109 z m 0,1.441406 0,0.955078 -57.546875,57.515625 -0.949219,0 58.496094,-58.470703 z m 0,1.439453 0,0.953125 -56.089844,56.078125 -0.958984,0 L 92.28125,35.25 Z m 0,1.449219 0,0.935547 -54.671875,54.646484 -0.939453,0 55.611328,-55.582031 z m 0,1.423828 0,0.951172 -53.224609,53.207031 -0.945313,0 54.169922,-54.158203 z m 0,1.429687 0,0.964844 -51.787109,51.763672 -0.964844,0 52.751953,-52.728516 z m 0,1.429688 0,0.964844 -50.355469,50.333984 -0.951172,0 51.306641,-51.298828 z m 0,1.449219 0,0.955078 -48.921875,48.894531 -0.949219,0 49.871094,-49.849609 z m 0,1.441406 0,0.953125 -47.464844,47.455078 -0.958984,0 48.423828,-48.408203 z m 0,1.445312 0,0.9375 -46.046875,46.025391 -0.939453,0 L 92.281246,45.31836 Z M 42.041012,46.701173 C 41.85432,47.15101 41.708477,47.62096 41.599605,48.10547 L 7.8593748,81.830078 C 7.8179341,81.54303 7.7849132,81.254184 7.7636717,80.960938 L 42.041016,46.701172 Z m 50.240234,0.04492 0,0.951172 -44.599609,44.583984 -0.945313,0 45.544922,-45.535156 z m 0,1.425781 0,0.966797 -43.162109,43.142578 -0.964844,0 44.126953,-44.109375 z M 41.49609,48.675779 c -0.05405,0.349417 -0.08887,0.704451 -0.09961,1.066407 L 8.097656,83.037109 C 8.0324696,82.775546 7.9719261,82.512158 7.9238279,82.244141 L 41.496094,48.675781 Z m 50.785156,0.929688 0,0.966797 -41.716797,41.708984 -0.964844,0 42.681641,-42.675781 z m -50.886719,0.609375 c 0.0074,0.299144 0.02927,0.593934 0.06641,0.884765 L 8.4199217,84.123047 c -0.08309,-0.236713 -0.159804,-0.47555 -0.2285157,-0.71875 L 41.394531,50.214844 Z m 50.886719,0.828125 0,0.951172 -40.308594,40.287109 -0.949218,0 41.257812,-41.238281 z m -50.755859,0.480469 c 0.04714,0.263749 0.107178,0.522495 0.177734,0.777343 L 8.8378904,85.162109 C 8.7360574,84.940076 8.6414262,84.715349 8.5527342,84.486328 L 41.525391,51.523438 Z m 50.755859,0.958984 0,0.955078 -38.851562,38.84375 -0.958985,0 L 92.28125,52.482422 Z M 41.8125,52.681641 c 0.07615,0.232574 0.158965,0.462164 0.253906,0.685547 l -32.75,32.736328 C 9.2014107,85.901239 9.0957561,85.693708 8.9921873,85.484375 L 41.8125,52.681641 Z m 0.414062,1.015625 c 0.101149,0.212233 0.208606,0.420822 0.326172,0.623046 L 9.8691404,86.994141 C 9.7397452,86.806193 9.6228352,86.609466 9.503906,86.414062 L 42.226562,53.697266 Z m 50.054688,0.230468 0,0.9375 -37.433594,37.416016 -0.939453,0 38.373047,-38.353516 z m -49.548828,0.689454 c 0.124661,0.195834 0.258821,0.383697 0.398437,0.568359 L 10.484375,87.816406 c -0.145913,-0.177867 -0.278229,-0.366639 -0.414063,-0.552734 l 32.66211,-32.646484 z m 49.548828,0.740234 0,0.949219 -35.986328,35.974609 -0.945313,0 36.931641,-36.923828 z m -48.949219,0.0957 c 0.143902,0.175753 0.296009,0.344043 0.453125,0.507813 L 11.164062,88.568359 c -0.156622,-0.161548 -0.305576,-0.32998 -0.453124,-0.5 L 43.332031,55.453125 Z m 0.695313,0.75 c 0.162379,0.15638 0.327726,0.309763 0.501953,0.453125 L 11.902344,89.263672 C 11.733494,89.116197 11.564724,88.968954 11.404297,88.8125 L 44.027344,56.203125 Z m 48.253906,0.580078 0,0.964844 -34.548828,34.533203 -0.964844,0 L 92.28125,56.7832 Z m -47.472656,0.08203 c 0.182248,0.138026 0.367388,0.271079 0.560547,0.394532 l -32.65625,32.65039 C 12.528621,89.774948 12.340218,89.645112 12.164062,89.5 L 44.808594,56.865234 Z m 0.865234,0.578125 c 0.199891,0.116429 0.405541,0.223835 0.615234,0.324219 L 13.560547,90.480469 C 13.366348,90.361621 13.171169,90.244437 12.984375,90.115234 L 45.673828,57.443359 Z m 0.947266,0.484375 c 0.225145,0.0961 0.456895,0.178863 0.691406,0.25586 L 14.490234,90.99609 C 14.281376,90.892162 14.074845,90.785242 13.873047,90.669922 L 46.621094,57.927734 Z m 6.65039,0.04102 L 19,92.234375 c -0.290772,-0.02198 -0.576689,-0.05776 -0.861328,-0.09961 L 51.880859,58.404297 c 0.479851,-0.106985 0.944633,-0.252215 1.390625,-0.435547 z m 39.009766,0.25 0,0.976562 -33.091797,33.085938 -0.976562,0 34.068359,-34.0625 z m -44.601562,0.07422 c 0.257841,0.07203 0.520116,0.131649 0.787109,0.179687 L 15.486328,91.4375 C 15.256472,91.34785 15.031375,91.251334 14.808594,91.148438 L 47.679688,58.292969 Z m 3.605468,0.216797 -33.578125,33.558593 c -0.260756,-0.04788 -0.51688,-0.107801 -0.771484,-0.171875 L 50.238281,58.605469 c 0.35524,-0.0097 0.703629,-0.04422 1.046875,-0.0957 z M 48.875,58.535157 c 0.294009,0.03844 0.591975,0.06229 0.894531,0.07031 L 16.568359,91.802734 c -0.247446,-0.07052 -0.489775,-0.150916 -0.730468,-0.236328 L 48.875,58.535156 Z m 43.40625,1.128906 0,0.949219 -31.683594,31.667969 -0.949218,0 32.632812,-32.617188 z m 0,1.441407 0,0.957031 -30.226562,30.21875 -0.958985,0 L 92.28125,61.10547 Z m 0,1.443359 0,0.9375 -28.808594,28.794922 -0.939453,0 29.748047,-29.732422 z m 0,1.431641 0,0.949219 -27.361328,27.351562 -0.945313,0 L 92.28125,63.98047 Z m 0,1.423828 0,0.964844 -25.923828,25.912109 -0.966797,0 26.890625,-26.876953 z m 0,1.4375 0,0.964844 -24.478516,24.474609 -0.964843,0 25.443359,-25.439453 z m 0,1.431641 0,0.949218 -23.070312,23.058594 -0.949219,0 24.019531,-24.007812 z m 0,1.443359 0,0.957031 -21.613281,21.607422 -0.958985,0 22.572266,-22.564453 z m 0,1.439453 0,0.939453 -20.195312,20.185547 -0.939454,0 21.134766,-21.125 z m 0,1.4375 0,0.947266 -18.748047,18.740234 -0.945312,0 19.693359,-19.6875 z m 0,1.419922 0,0.964844 -17.310547,17.302734 -0.966797,0 18.277344,-18.267578 z m 0,1.439453 0,0.957031 -15.878906,15.871094 -0.951172,0 16.830078,-16.828125 z m 0,1.441406 0,0.947266 -14.445312,14.439453 -0.947266,0 15.392578,-15.386719 z m 0,1.445313 0,0.957031 -12.988281,12.984375 -0.958985,0 13.947266,-13.941406 z m 0,1.4375 0,0.285156 c 0,0.232195 -0.02247,0.458562 -0.03516,0.6875 l -11.5,11.498047 c -0.227628,0.01254 -0.452748,0.0332 -0.683594,0.0332 l -0.291016,0 12.509766,-12.503906 z m -0.06055,1.5 c -0.03691,0.376444 -0.09593,0.745849 -0.166015,1.111328 l -9.669922,9.666016 c -0.365507,0.06997 -0.734862,0.129217 -1.111328,0.166015 l 10.947268,-10.94336 z m -0.308594,1.724609 c -0.117612,0.478027 -0.261779,0.944657 -0.433593,1.398438 l -7.080078,7.080078 c -0.454939,0.172146 -0.92305,0.315927 -1.402344,0.433593 l 8.916015,-8.912109 z m -0.78125,2.226563 c -0.428263,0.919051 -0.958849,1.780038 -1.591797,2.55664 l -1.755859,1.75586 c -0.776707,0.632744 -1.637528,1.163745 -2.556641,1.591796 l 5.904297,-5.904296 z"
     id="path4138"
     inkscape:connector-curvature="0" />
  <path
     d="m 604.40302,-63.992455 -113.5957,113.578125 0.45703,0 113.62304,-113.578125 -0.48437,0 z m 1.44922,0 -113.64453,113.578125 0.50391,0 113.61132,-113.578125 -0.4707,0 z m 1.41992,0 -113.59961,113.578125 0.47266,0 113.63867,-113.578125 -0.51172,0 z m 1.44336,0 -113.6289,113.578125 0.50586,0 113.5996,-113.578125 -0.47656,0 z m 1.43359,0 -113.61327,113.578125 0.46875,0 113.63085,-113.578125 -0.48633,0 z m 1.44922,0 -113.62695,113.578125 0.48438,0 113.59374,-113.578125 -0.45117,0 z m 1.41797,0 -113.5957,113.578125 0.45703,0 113.62305,-113.578125 -0.48438,0 z m 1.44922,0 -113.64453,113.578125 0.50391,0 113.61132,-113.578125 -0.4707,0 z m 1.41992,0 -113.59961,113.578125 0.47266,0 113.63867,-113.578125 -0.51172,0 z m 1.44336,0 -113.6289,113.578125 0.50585,0 113.59961,-113.578125 -0.47656,0 z m 1.43359,0 -113.61328,113.578125 0.46875,0 113.63086,-113.578125 -0.48633,0 z m 1.44922,0 -113.62695,113.578125 0.48438,0 113.59375,-113.578125 -0.45118,0 z m 1.42969,0 -113.5957,113.578125 0.45703,0 113.62305,-113.578125 -0.48438,0 z m 1.44922,0 -113.64453,113.578125 0.50391,0 113.61132,-113.578125 -0.4707,0 z m 1.41992,0 -113.59961,113.578125 0.47266,0 113.63867,-113.578125 -0.51172,0 z m 1.44336,0 -113.6289,113.578125 0.50585,0 113.59961,-113.578125 -0.47656,0 z m 1.43359,0 -113.61328,113.578125 0.46875,0 113.63086,-113.578125 -0.48633,0 z m 1.44922,0 -113.62695,113.578125 0.48438,0 113.59375,-113.578125 -0.45118,0 z m 1.41797,0 -113.5957,113.578125 0.45703,0 113.62305,-113.578125 -0.48438,0 z m 1.44922,0 -113.64453,113.578125 0.50391,0 113.61132,-113.578125 -0.4707,0 z m 1.41992,0 -113.59961,113.578125 0.47266,0 113.63867,-113.578125 -0.51172,0 z m 1.44336,0 -113.6289,113.578125 0.50586,0 113.5996,-113.578125 -0.47656,0 z m 1.4336,0 -113.61328,113.578125 0.46875,0 113.63085,-113.578125 -0.48632,0 z m 1.44921,0 -113.62695,113.578125 0.48438,0 113.59375,-113.578125 -0.45118,0 z m 1.42969,0 -113.625,113.578125 0.0293,0 0.45117,0 0.006,0 113.62305,-113.578125 -0.0117,0 -0.47266,0 z m 1.44922,0 -113.64453,113.578125 0.50391,0 113.61132,-113.578125 -0.4707,0 z m 1.41992,0 -113.59961,113.578125 0.47266,0 113.63867,-113.578125 -0.51172,0 z m 1.44336,0 -113.6289,113.578125 0.50586,0 113.5996,-113.578125 -0.47656,0 z m 1.4336,0 -113.61328,113.578125 0.46875,0 113.63085,-113.578125 -0.48632,0 z m 1.44921,0 -113.62695,113.578125 0.48438,0 113.59375,-113.578125 -0.45118,0 z m 1.41797,0 -113.5957,113.578125 0.45703,0 113.62305,-113.578125 -0.48438,0 z m 1.44922,0 -113.64453,113.578125 0.50391,0 113.61133,-113.578125 -0.47071,0 z m 1.41992,0 -113.5996,113.578125 0.47265,0 113.63867,-113.578125 -0.51172,0 z m 1.44336,0 -113.6289,113.578125 0.50586,0 113.59961,-113.578125 -0.47657,0 z m 1.4336,0 -113.61328,113.578125 0.46875,0 113.63086,-113.578125 -0.48633,0 z m 1.44922,0 -113.62696,113.578125 0.48438,0 113.59375,-113.578125 -0.45117,0 z m 1.42968,0 -113.5957,113.578125 0.45703,0 113.62305,-113.578125 -0.48438,0 z m 1.44922,0 -113.64453,113.578125 0.50391,0 113.61132,-113.578125 -0.4707,0 z m 1.41992,0 -113.5996,113.578125 0.47265,0 113.63867,-113.578125 -0.51172,0 z m 1.44336,0 -113.6289,113.578125 0.50586,0 113.59961,-113.578125 -0.47657,0 z m 1.4336,0 -113.61328,113.578125 0.46875,0 113.63085,-113.578125 -0.48632,0 z m 1.44922,0 -113.62696,113.578125 0.48438,0 113.59374,-113.578125 -0.45116,0 z m 1.41796,0 -113.5957,113.578125 0.45703,0 113.62305,-113.578125 -0.48438,0 z m 1.44922,0 -113.64453,113.578125 0.50391,0 113.61133,-113.578125 -0.47071,0 z m 1.41992,0 -113.5996,113.578125 0.47265,0 113.63867,-113.578125 -0.51172,0 z m 1.44336,0 -113.6289,113.578125 0.50586,0 113.59961,-113.578125 -0.47657,0 z m 1.43359,0 -113.61327,113.578125 0.46875,0 113.63086,-113.578125 -0.48634,0 z m 1.44923,0 -113.62696,113.578125 0.48438,0 113.59374,-113.578125 -0.45116,0 z m 1.42968,0 -113.62499,113.578125 0.0293,0 0.45117,0 0.006,0 113.62305,-113.578125 -0.0117,0 -0.47266,0 z m 1.44922,0 -113.64453,113.578125 0.50391,0 113.61133,-113.578125 -0.47071,0 z m 1.41992,0 -113.5996,113.578125 0.47265,0 113.63867,-113.578125 -0.51172,0 z m 1.44336,0 -113.6289,113.578125 0.50586,0 113.59961,-113.578125 -0.47657,0 z m 1.43359,0 -113.61327,113.578125 0.46875,0 113.63086,-113.578125 -0.48634,0 z m 1.44923,0 -113.62696,113.578125 0.48438,0 113.59374,-113.578125 -0.45116,0 z m 1.41797,0 -113.59571,113.578125 0.45703,0 113.62306,-113.578125 -0.48438,0 z m 1.44921,0 -113.64453,113.578125 0.50391,0 113.61132,-113.578125 -0.4707,0 z m 1.41993,0 -113.59961,113.578125 0.47265,0 113.63867,-113.578125 -0.51171,0 z m 1.44336,0 -113.62891,113.578125 0.50586,0 113.59961,-113.578125 -0.47656,0 z m 1.43359,0 -113.61328,113.578125 0.46875,0 113.63085,-113.578125 -0.48632,0 z m 1.44922,0 -113.62695,113.578125 0.48437,0 113.59376,-113.578125 -0.45118,0 z m 1.42969,0 -113.59571,113.578125 0.45703,0 113.62305,-113.578125 -0.48437,0 z m 1.44921,0 -113.64453,113.578125 0.50391,0 113.61132,-113.578125 -0.4707,0 z m 1.41992,0 -113.5996,113.578125 0.47265,0 113.63867,-113.578125 -0.51172,0 z m 1.44337,0 -113.62891,113.578125 0.50586,0 113.59961,-113.578125 -0.47656,0 z m 1.43359,0 -113.61328,113.578125 0.46875,0 113.63085,-113.578125 -0.48632,0 z m 1.44922,0 -113.62695,113.578125 0.48437,0 113.59376,-113.578125 -0.45118,0 z m 1.41797,0 L 585.612,49.58567 l 0.45704,0 113.62304,-113.578125 -0.48437,0 z m 1.44922,0 -113.64454,113.578125 0.50391,0 113.61132,-113.578125 -0.47069,0 z m 1.41992,0 -113.59961,113.578125 0.47265,0 113.63868,-113.578125 -0.51172,0 z m 1.44336,0 -113.62891,113.578125 0.50586,0 113.59961,-113.578125 -0.47656,0 z m 1.4336,0 -113.61329,113.578125 0.46875,0 113.63086,-113.578125 -0.48632,0 z m 1.44922,0 -113.62696,113.578125 0.48437,0 113.59376,-113.578125 -0.45117,0 z m 1.42968,0 -113.625,113.578125 0.0293,0 0.45118,0 0.006,0 113.62305,-113.578125 -0.0117,0 -0.47266,0 z m 1.44922,0 -113.64454,113.578125 0.50391,0 113.61133,-113.578125 -0.4707,0 z m 1.41992,0 -113.59961,113.578125 0.47265,0 113.63868,-113.578125 -0.51172,0 z m 1.44336,0 -113.62891,113.578125 0.50586,0 113.59961,-113.578125 -0.47656,0 z m 1.4336,0 -113.61329,113.578125 0.46875,0 113.63086,-113.578125 -0.48632,0 z m 1.44922,0 -113.62696,113.578125 0.48437,0 113.59376,-113.578125 -0.45117,0 z m 1.41796,0 -113.5957,113.578125 0.45703,0 113.62305,-113.578125 -0.48438,0 z m 1.44922,0 -113.64453,113.578125 0.5039,0 113.61134,-113.578125 -0.47071,0 z m 1.41992,0 -113.59961,113.578125 0.47266,0 113.63867,-113.578125 -0.51172,0 z m 1.44336,0 -113.62891,113.578125 0.50586,0 113.59962,-113.578125 -0.47657,0 z m 1.4336,0 -113.61329,113.578125 0.46875,0 113.63087,-113.578125 -0.48633,0 z m 1.44922,0 -113.62696,113.578125 0.48437,0 113.59376,-113.578125 -0.45117,0 z m 1.42968,0 -113.5957,113.578125 0.45703,0 113.62305,-113.578125 -0.48438,0 z m 1.44922,0 -113.64453,113.578125 0.5039,0 113.61134,-113.578125 -0.47071,0 z m 1.41992,0 -113.59961,113.578125 0.47266,0 113.63867,-113.578125 -0.51172,0 z m 1.44336,0 -113.62891,113.578125 0.50586,0 113.59962,-113.578125 -0.47657,0 z m 1.4336,0 -113.61329,113.578125 0.46875,0 113.63087,-113.578125 -0.48633,0 z m 1.44922,0 -113.62696,113.578125 0.48437,0 113.59376,-113.578125 -0.45117,0 z m 1.41796,0 -113.5957,113.578125 0.45703,0 113.62305,-113.578125 -0.48438,0 z m 1.44922,0 -113.64453,113.578125 0.5039,0 113.61134,-113.578125 -0.47071,0 z m 1.41993,0 -113.59962,113.578125 0.47266,0 113.63867,-113.578125 -0.51171,0 z m 1.44335,0 -113.62891,113.578125 0.50586,0 113.59962,-113.578125 -0.47657,0 z m 1.4336,0 -113.61329,113.578125 0.46875,0 113.63087,-113.578125 -0.48633,0 z m 1.44922,0 -113.62696,113.578125 0.48437,0 113.59376,-113.578125 -0.45117,0 z m 1.42968,0 -113.625,113.578125 0.0293,0 0.45117,0 0.006,0 113.62305,-113.578125 -0.0117,0 -0.47266,0 z m 1.44922,0 -113.64453,113.578125 0.5039,0 113.61134,-113.578125 -0.47071,0 z m 1.41993,0 -113.59962,113.578125 0.47266,0 113.63867,-113.578125 -0.51171,0 z m 1.44335,0 -113.62891,113.578125 0.50586,0 113.59962,-113.578125 -0.47657,0 z m 1.4336,0 -113.61329,113.578125 0.46875,0 113.63087,-113.578125 -0.48633,0 z m 1.44922,0 -113.62696,113.578125 0.48437,0 113.59376,-113.578125 -0.45117,0 z m 1.41797,0 -113.59571,113.578125 0.45703,0 113.62305,-113.578125 -0.48437,0 z m 1.44921,0 -113.64453,113.578125 0.5039,0 113.61134,-113.578125 -0.47071,0 z m 1.41993,0 -113.59962,113.578125 0.47266,0 113.63868,-113.578125 -0.51172,0 z m 1.44336,0 -113.62892,113.578125 0.50586,0 113.59962,-113.578125 -0.47656,0 z m 1.43359,0 -113.61329,113.578125 0.46875,0 113.63087,-113.578125 -0.48633,0 z m 1.44922,0 -113.62696,113.578125 0.48438,0 113.59375,-113.578125 -0.45117,0 z m 1.42969,0 -113.59571,113.578125 0.45703,0 113.62305,-113.578125 -0.48437,0 z m 1.44921,0 -113.64453,113.578125 0.5039,0 113.61134,-113.578125 -0.47071,0 z m 1.41993,0 -113.59962,113.578125 0.47266,0 113.63868,-113.578125 -0.51172,0 z m 1.44336,0 -113.62892,113.578125 0.50586,0 113.59962,-113.578125 -0.47656,0 z m 1.43359,0 -113.61329,113.578125 0.46875,0 113.63087,-113.578125 -0.48633,0 z m 1.44922,0 -113.62696,113.578125 0.48438,0 113.59375,-113.578125 -0.45117,0 z m 1.41797,0 -113.59571,113.578125 0.45703,0 113.62305,-113.578125 -0.48437,0 z m 1.44922,0 -113.64454,113.578125 0.50391,0 113.61133,-113.578125 -0.4707,0 z m 1.41992,0 -113.59962,113.578125 0.47266,0 113.63868,-113.578125 -0.51172,0 z m 1.44336,0 -113.62891,113.578125 0.50585,0 113.59962,-113.578125 -0.47656,0 z m 1.43359,0 -113.61329,113.578125 0.46875,0 113.63087,-113.578125 -0.48633,0 z m 1.44922,0 -113.62695,113.578125 0.48437,0 113.59375,-113.578125 -0.45117,0 z m 1.42969,0 -113.62501,113.578125 0.0293,0 0.45119,0 0.006,0 113.62304,-113.578125 -0.0117,0 -0.47265,0 z m 1.44922,0 -113.64454,113.578125 0.50391,0 113.61133,-113.578125 -0.4707,0 z m 1.41992,0 -113.59962,113.578125 0.47266,0 113.63868,-113.578125 -0.51172,0 z m 1.44336,0 -113.62891,113.578125 0.50585,0 113.59962,-113.578125 -0.47656,0 z m 1.43359,0 -113.61329,113.578125 0.46875,0 113.63087,-113.578125 -0.48633,0 z m 1.44922,0 -113.62695,113.578125 0.48437,0 113.59375,-113.578125 -0.45117,0 z m 1.41797,0 -113.5957,113.578125 0.45703,0 113.62304,-113.578125 -0.48437,0 z m 1.44922,0 -113.64453,113.578125 0.5039,0 113.61133,-113.578125 -0.4707,0 z m 1.41992,0 -113.59962,113.578125 0.47267,0 113.63867,-113.578125 -0.51172,0 z m 1.44336,0 -113.62891,113.578125 0.50586,0 113.59961,-113.578125 -0.47656,0 z m 1.43359,0 -113.61328,113.578125 0.46875,0 113.63086,-113.578125 -0.48633,0 z m 1.44922,0 -113.62696,113.578125 0.48437,0 113.59376,-113.578125 -0.45117,0 z m 1.42969,0 -113.5957,113.578125 0.45703,0 113.62304,-113.578125 -0.48437,0 z m 1.44922,0 -113.64453,113.578125 0.5039,0 113.61133,-113.578125 -0.4707,0 z m 1.41992,0 -113.59962,113.578125 0.47267,0 113.63867,-113.578125 -0.51172,0 z m 1.44336,0 -113.62891,113.578125 0.50585,0 113.59962,-113.578125 -0.47656,0 z m 1.43359,0 -113.61328,113.578125 0.46875,0 113.63086,-113.578125 -0.48633,0 z m 1.44922,0 -113.62695,113.578125 0.48436,0 113.59376,-113.578125 -0.45117,0 z m 1.41797,0 -113.5957,113.578125 0.45703,0 113.62304,-113.578125 -0.48437,0 z m 1.44922,0 -113.64454,113.578125 0.50391,0 113.61133,-113.578125 -0.4707,0 z m 1.41992,0 -113.59961,113.578125 0.47265,0 113.63868,-113.578125 -0.51172,0 z m 1.44336,0 -113.62891,113.578125 0.50585,0 113.59962,-113.578125 -0.47656,0 z m 1.43359,0 -113.61328,113.578125 0.46875,0 113.63086,-113.578125 -0.48633,0 z m 1.44922,0 -113.62695,113.578125 0.48436,0 113.59376,-113.578125 -0.45117,0 z m 1.42969,0 -113.62501,113.578125 0.48047,0 113.6172,-113.578125 -0.47266,0 z"
     id="path4140"
     inkscape:connector-curvature="0" />
</svg>
