<?xml version="1.0" encoding="UTF-8" standalone="no"?>
<svg
   xmlns:dc="http://purl.org/dc/elements/1.1/"
   xmlns:cc="http://creativecommons.org/ns#"
   xmlns:rdf="http://www.w3.org/1999/02/22-rdf-syntax-ns#"
   xmlns:svg="http://www.w3.org/2000/svg"
   xmlns="http://www.w3.org/2000/svg"
   xmlns:sodipodi="http://sodipodi.sourceforge.net/DTD/sodipodi-0.dtd"
   xmlns:inkscape="http://www.inkscape.org/namespaces/inkscape"
   viewBox="0 0 100 100"
   x="0px"
   y="0px"
   id="svg4152"
   version="1.1"
   inkscape:version="0.91 r13725"
   sodipodi:docname="2.svg"
   width="100"
   height="100">
  <metadata
     id="metadata4164">
    <rdf:RDF>
      <cc:Work
         rdf:about="">
        <dc:format>image/svg+xml</dc:format>
        <dc:type
           rdf:resource="http://purl.org/dc/dcmitype/StillImage" />
        <dc:title></dc:title>
      </cc:Work>
    </rdf:RDF>
  </metadata>
  <defs
     id="defs4162" />
  <sodipodi:namedview
     pagecolor="#ffffff"
     bordercolor="#666666"
     borderopacity="1"
     objecttolerance="10"
     gridtolerance="10"
     guidetolerance="10"
     inkscape:pageopacity="0"
     inkscape:pageshadow="2"
     inkscape:window-width="1680"
     inkscape:window-height="987"
     id="namedview4160"
     showgrid="false"
     inkscape:zoom="1.888"
     inkscape:cx="50"
     inkscape:cy="62.5"
     inkscape:window-x="1672"
     inkscape:window-y="-8"
     inkscape:window-maximized="1"
     inkscape:current-layer="svg4152" />
  <path
     d="M 19.9375,5 C 11.705017,5 5,11.705022 5,19.9375 l 0,60.125 C 5,88.294978 11.705017,95 19.9375,95 l 60.125,0 C 88.294974,95 95,88.294976 95,80.0625 l 0,-60.125 C 95,11.705024 88.294974,5 80.0625,5 l -60.125,0 z m 0,2.71875 0.279297,0 -12.498047,12.492188 0,-0.273438 c 0,-0.241406 0.021454,-0.476965 0.035156,-0.714844 L 19.226562,7.753906 c 0.236603,-0.01355 0.470847,-0.03516 0.710938,-0.03516 z m 0.761719,0 0.964843,0 -13.945312,13.9375 0,-0.960938 L 20.699219,7.71875 Z m 1.419922,0 0.974609,0 -15.375,15.367188 0,-0.96875 L 22.119141,7.71875 Z m 1.458984,0 0.960937,0 -16.820312,16.8125 0,-0.958984 L 23.578125,7.71875 Z m 1.4375,0 0.951172,0 -18.248047,18.244141 0,-0.953125 L 25.015625,7.71875 Z m 1.457031,0 0.933594,0 -19.6875,19.677734 0,-0.933593 L 26.472656,7.71875 Z m 1.414063,0 0.955078,0 -21.123047,21.115234 0,-0.953125 L 27.886719,7.71875 Z m 1.4375,0 0.964843,0 -22.570312,22.558594 0,-0.960938 L 29.324219,7.71875 Z m 1.419922,0 0.966797,0 -23.992188,23.988281 0,-0.966797 L 30.744141,7.71875 Z m 1.449218,0 0.958985,0 -25.433594,25.419922 0,-0.957031 L 32.193359,7.71875 Z m 1.435547,0 0.951172,0 -26.861328,26.855469 0,-0.953125 L 33.628906,7.71875 Z m 1.457032,0 0.933593,0 -28.300781,28.287109 0,-0.933593 L 35.085938,7.71875 Z m 1.414062,0 0.955078,0 -29.736328,29.726562 0,-0.951171 L 36.5,7.71875 Z m 1.4375,0 0.964844,0 -31.183594,31.167969 0,-0.960938 L 37.9375,7.71875 Z m 1.419922,0 0.978516,0 -32.617188,32.611328 0,-0.976562 L 39.357422,7.71875 Z m 1.460937,0 0.958985,0 -34.058594,34.041016 0,-0.957032 L 40.818359,7.71875 Z m 1.435547,0 0.951172,0 -35.486328,35.478516 0,-0.955078 L 42.253906,7.71875 Z m 1.457032,0 0.933593,0 -36.925781,36.908203 0,-0.933594 L 43.710938,7.71875 Z m 1.414062,0 0.955078,0 -38.361328,38.347656 0,-0.949218 L 45.125,7.71875 Z m 1.4375,0 0.964844,0 -39.808594,39.791016 0,-0.962891 L 46.5625,7.71875 Z m 1.419922,0 0.966797,0 -41.230469,41.222656 0,-0.964844 L 47.982422,7.71875 Z m 1.449219,0 0.958984,0 -42.671875,42.648438 0,-0.955079 L 49.431641,7.71875 Z m 1.435547,0 0.951171,0 -44.099609,44.089844 0,-0.955078 L 50.867188,7.71875 Z m 1.457031,0 0.933593,0 -45.539062,45.517578 0,-0.935547 L 52.324219,7.71875 Z m 1.414062,0 0.955078,0 -46.974609,46.958984 0,-0.949218 L 53.738281,7.71875 Z m 1.4375,0 0.964844,0 -48.421875,48.400391 0,-0.962891 47.457031,-47.4375 z m 1.419922,0 0.974609,0 -49.851562,49.830078 0,-0.960937 L 56.595703,7.71875 Z m 1.460938,0 0.958984,0 -51.296875,51.269531 0,-0.955078 L 58.056641,7.71875 Z m 1.435547,0 0.951171,0 -52.724609,52.712891 0,-0.955079 L 59.492188,7.71875 Z m 1.457031,0 0.933593,0 -54.164062,54.138672 0,-0.935547 L 60.949219,7.71875 Z m 1.414062,0 0.955078,0 -55.599609,55.582031 0,-0.949219 L 62.363281,7.71875 Z m 1.4375,0 0.964844,0 -57.046875,57.021484 0,-0.96289 L 63.800781,7.71875 Z m 1.419922,0 0.966797,0 -58.46875,58.458984 0,-0.964843 L 65.220703,7.71875 Z m 1.449219,0 0.958984,0 -59.910156,59.876953 0,-0.951172 L 66.669922,7.71875 Z m 1.435547,0 0.951172,0 -61.337891,61.324219 0,-0.957031 L 68.105469,7.71875 Z m 1.457031,0 0.933594,0 -62.777344,62.748047 0,-0.935547 61.84375,-61.8125 z m 1.414062,0 0.955079,0 -64.212891,64.191406 0,-0.947265 L 70.976562,7.71875 Z m 1.4375,0 0.964844,0 -65.660156,65.630859 0,-0.96289 L 72.414062,7.71875 Z m 1.419922,0 0.978516,0 -67.09375,67.082031 0,-0.976562 L 73.833984,7.71875 Z m 1.460938,0 0.958984,0 -68.535156,68.496094 0,-0.949219 L 75.294922,7.71875 Z m 1.435547,0 0.951172,0 -69.962891,69.949219 0,-0.958985 L 76.730469,7.71875 Z m 1.457031,0 0.933594,0 -71.402344,71.369141 0,-0.9375 L 78.1875,7.71875 Z m 1.414062,0 0.460938,0 c 0.158963,0 0.313241,0.01747 0.470703,0.02344 L 70.197266,18.074219 c -1.374815,0.773659 -2.514094,1.913131 -3.289063,3.287109 l -45.582031,45.56836 c -1.343933,0.766538 -2.460224,1.882501 -3.226563,3.226562 L 7.7402344,80.511719 C 7.7347965,80.361391 7.71875,80.214193 7.71875,80.0625 l 0,-0.474609 L 79.601562,7.71875 Z m 1.392579,0.04687 c 0.291344,0.02189 0.578088,0.05583 0.863281,0.09766 l -9.31836,9.314453 c -0.48321,0.107362 -0.951489,0.252753 -1.40039,0.4375 L 80.994141,7.765624 Z M 18.71875,7.779297 7.7792969,18.714844 c 0.036701,-0.371871 0.096931,-0.736492 0.1660156,-1.097656 L 17.623047,7.943359 c 0.360491,-0.06877 0.724556,-0.12755 1.095703,-0.164062 z m 63.533203,0.144531 c 0.268104,0.04829 0.531332,0.110392 0.792969,0.175781 l -8.882813,8.88086 c -0.361263,0.01047 -0.715659,0.04404 -1.064453,0.09766 L 82.251953,7.923828 Z M 16.960938,8.097656 8.0976562,16.958984 c 0.1175554,-0.47107 0.2594342,-0.931516 0.4296876,-1.378906 L 15.582031,8.527344 c 0.447432,-0.170192 0.907798,-0.312201 1.378907,-0.429688 z m 66.466796,0.09961 c 0.246093,0.07006 0.487143,0.149593 0.726563,0.234375 l -8.621094,8.617188 c -0.292952,-0.03803 -0.591155,-0.06052 -0.892578,-0.06836 l 8.787109,-8.783204 z m 1.076172,0.361328 c 0.225835,0.08786 0.446994,0.182561 0.666016,0.283204 l -8.449219,8.447265 C 76.46677,17.218593 76.21005,17.158548 75.947266,17.111328 l 8.55664,-8.552734 z m -69.746094,0.31836 -5.8789058,5.875 c 0.4309537,-0.920495 0.9632142,-1.78352 1.5996098,-2.560547 l 1.716796,-1.714844 c 0.777712,-0.636499 1.641211,-1.16885 2.5625,-1.599609 z m 70.75586,0.128906 c 0.206208,0.102706 0.410051,0.208455 0.609375,0.322266 l -8.330078,8.328125 c -0.22226,-0.09482 -0.452205,-0.175746 -0.683594,-0.251953 L 85.513672,9.00586 Z m 0.910156,0.503907 c 0.196844,0.120057 0.394725,0.238457 0.583984,0.36914 l -8.265624,8.263672 C 78.539296,18.024317 78.332133,17.914222 78.119141,17.8125 l 8.304687,-8.302734 z m 0.859375,0.576172 c 0.185804,0.136205 0.375173,0.267792 0.552735,0.414062 l -8.226563,8.220703 C 79.425834,18.581586 79.237583,18.44855 79.042969,18.32422 l 8.240234,-8.238281 z m 0.791016,0.628906 c 0.173408,0.150662 0.345186,0.302787 0.509765,0.46289 l -8.201172,8.199219 C 80.217936,19.21842 80.050104,19.063087 79.873047,18.917969 l 8.201172,-8.203125 z m 0.751953,0.705078 c 0.158747,0.163332 0.309529,0.333841 0.458984,0.505859 L 81.080078,20.125 C 80.936066,19.949405 80.782213,19.782749 80.625,19.619141 l 8.201172,-8.199219 z m 0.683594,0.757812 c 0.143387,0.17455 0.272572,0.360479 0.40625,0.542969 l -8.240235,8.238281 c -0.122837,-0.192359 -0.253337,-0.378996 -0.390625,-0.560546 l 8.22461,-8.220704 z m 0.623046,0.832032 c 0.127698,0.185621 0.243835,0.379375 0.361329,0.572265 l -8.306641,8.30078 c -0.09951,-0.208476 -0.204947,-0.412514 -0.320312,-0.611328 l 8.265624,-8.261718 z m 0.541016,0.871093 c 0.116903,0.204908 0.224915,0.414782 0.330078,0.626953 l -8.402344,8.398438 c -0.07723,-0.23605 -0.159283,-0.470687 -0.255859,-0.697266 l 8.328125,-8.328125 z m 0.486328,0.953125 c 0.102265,0.222763 0.198075,0.447934 0.28711,0.677735 l -8.556641,8.552734 c -0.04756,-0.26679 -0.108177,-0.527472 -0.179687,-0.785156 l 8.449218,-8.445313 z m 0.408203,1.013672 c 0.08501,0.240185 0.166137,0.481619 0.236329,0.728516 l -8.785157,8.783203 c -0.0079,-0.302742 -0.03003,-0.602291 -0.06836,-0.896484 l 8.617187,-8.615235 z m 0.333985,1.111328 c 0.06463,0.258968 0.123999,0.519856 0.171875,0.785157 l -9.150391,9.146484 c 0.05255,-0.345032 0.08535,-0.695525 0.0957,-1.052734 l 8.882813,-8.878907 z m 0.236328,1.201172 c 0.04095,0.282015 0.07425,0.565502 0.0957,0.853516 l -9.851563,9.851562 c 0.183205,-0.444512 0.326251,-0.90849 0.433594,-1.386718 l 9.322266,-9.31836 z m 0.121094,1.332032 c 0.0053,0.149036 0.02148,0.294935 0.02148,0.445312 l 0,0.466797 -71.910156,71.876953 -0.433594,0 c -0.162254,0 -0.319781,-0.01722 -0.480469,-0.02344 l 10.32227,-10.318357 c 1.392845,-0.778012 2.546563,-1.930435 3.326172,-3.322265 L 78.675781,33.068359 C 80.01741,32.30258 81.132603,31.18925 81.898438,29.847656 L 92.259766,19.492188 Z m 0.02148,1.396484 0,0.953125 -70.464844,70.439453 -0.943359,0 71.408203,-71.392578 z m -25.833984,1.416016 c -0.184972,0.448775 -0.329888,0.917283 -0.4375,1.40039 L 23.681641,66.015625 c -0.485714,0.109641 -0.957414,0.255508 -1.408203,0.443359 L 66.447266,22.304688 Z m 25.833984,0.01758 0,0.964843 -69.025391,68.994141 -0.964843,0 69.990234,-69.958984 z m 0,1.423828 0,0.978515 -67.568359,67.556641 -0.976563,0 68.544922,-68.535156 z m -26.373047,0.519531 c -0.05363,0.348326 -0.08706,0.703683 -0.09766,1.064453 L 25.324219,65.8125 c -0.360799,0.01084 -0.71612,0.04377 -1.064453,0.09766 L 65.908203,24.265625 Z m 26.373047,0.935547 0,0.957031 -66.160156,66.123047 -0.949219,0 67.109375,-67.080079 z m -26.470703,0.607421 c 0.0077,0.301172 0.02855,0.597901 0.06641,0.890625 L 26.677734,65.875 c -0.290913,-0.03688 -0.585551,-0.05928 -0.884765,-0.06641 l 40.017578,-40 z m 26.470703,0.830078 0,0.953125 -64.703125,64.689453 -0.958984,0 65.662109,-65.642578 z m -26.339844,0.476562 c 0.04709,0.262376 0.107471,0.519881 0.177735,0.773438 L 27.884766,66.117188 c -0.255383,-0.07063 -0.514983,-0.130616 -0.779297,-0.177735 L 65.941406,27.115234 Z m 26.339844,0.97461 0,0.935547 -63.285156,63.255859 -0.939453,0 64.224609,-64.191406 z m -26.048828,0.185547 c 0.0762,0.231908 0.157065,0.460842 0.251953,0.683593 l -37.535152,37.51953 c -0.223954,-0.09505 -0.454319,-0.175785 -0.6875,-0.251954 L 66.232422,28.275391 Z m 0.410156,1.011718 c 0.101475,0.21264 0.210166,0.420467 0.328125,0.623047 L 29.904297,66.966797 C 29.702393,66.849454 29.495082,66.741605 29.283203,66.640625 L 66.642578,29.287109 Z m 25.638672,0.22461 0,0.951172 -61.837891,61.818359 -0.945312,0 62.783203,-62.769531 z M 67.15234,30.208986 c 0.124594,0.195268 0.257009,0.384227 0.396484,0.56836 L 30.767578,67.542969 C 30.582975,67.403518 30.394975,67.269042 30.199219,67.144531 L 67.152344,30.208984 Z m 25.128906,0.734375 0,0.964844 -60.400391,60.373047 -0.964843,0 61.365234,-61.337891 z m -24.535156,0.09766 c 0.144751,0.176723 0.300872,0.343214 0.458984,0.507812 L 31.542969,68.199219 c -0.16379,-0.157035 -0.330094,-0.311257 -0.50586,-0.455078 L 67.746094,31.041016 Z m 0.701172,0.75 c 0.163482,0.15724 0.328439,0.312978 0.503906,0.457031 L 32.238281,68.939453 c -0.143195,-0.173799 -0.296968,-0.338008 -0.453125,-0.5 l 36.66211,-36.648437 z m 23.833984,0.578125 0,0.966797 -58.955078,58.945312 -0.964844,0 59.919922,-59.912109 z m -23.054688,0.08398 c 0.181909,0.137648 0.367781,0.269442 0.560547,0.392578 l -36.943359,36.9375 c -0.123714,-0.193456 -0.256198,-0.379995 -0.394531,-0.5625 L 69.226562,32.453125 Z m 0.871094,0.582031 c 0.198664,0.115378 0.403007,0.220768 0.611328,0.320313 L 33.351562,70.697266 C 33.25121,70.488021 33.143678,70.283453 33.027344,70.083984 L 70.097656,33.035156 Z m 0.939453,0.478516 c 0.227249,0.09694 0.460486,0.180335 0.697266,0.257812 L 33.767578,71.724609 c -0.07712,-0.234705 -0.159605,-0.466086 -0.255859,-0.691406 l 37.52539,-37.519531 z m 6.65625,0.03906 -44.134765,44.126954 c 0.183036,-0.446538 0.327062,-0.91218 0.433594,-1.392579 l 42.3125,-42.298828 c 0.47904,-0.107294 0.943436,-0.252145 1.388671,-0.435547 z m 14.587891,0.257813 0,0.955078 -57.546875,57.515625 -0.949219,0 58.496094,-58.470703 z m -20.175781,0.06836 c 0.257379,0.07152 0.518685,0.134014 0.785156,0.181641 L 34.056641,72.875 c -0.0481,-0.266241 -0.107731,-0.528027 -0.179688,-0.785156 L 72.105469,33.878906 Z M 75.714844,34.09375 34.097656,75.6875 c 0.05048,-0.340286 0.08232,-0.687022 0.0918,-1.039062 L 74.664062,34.189453 c 0.356097,-0.01022 0.706775,-0.04354 1.050782,-0.0957 z m -2.423828,0.02734 c 0.29465,0.03845 0.593254,0.06045 0.896484,0.06836 L 34.189453,74.181641 c -0.0081,-0.302537 -0.02986,-0.600546 -0.06836,-0.894532 L 73.291016,34.121094 Z M 92.28125,35.25 l 0,0.953125 -56.089844,56.078125 -0.958984,0 L 92.28125,35.25 Z m 0,1.449219 0,0.935547 -54.671875,54.646484 -0.939453,0 55.611328,-55.582031 z m 0,1.423828 0,0.951172 -53.224609,53.207031 -0.945313,0 54.169922,-54.158203 z m 0,1.429687 0,0.964844 -51.787109,51.763672 -0.964844,0 52.751953,-52.728516 z m 0,1.429688 0,0.964844 -50.355469,50.333984 -0.951172,0 51.306641,-51.298828 z m 0,1.449219 0,0.955078 -48.921875,48.894531 -0.949219,0 49.871094,-49.849609 z m 0,1.441406 0,0.953125 -47.464844,47.455078 -0.958984,0 48.423828,-48.408203 z m 0,1.445312 0,0.9375 -46.046875,46.025391 -0.939453,0 46.986328,-46.962891 z m 0,1.427735 0,0.951172 -44.599609,44.583984 -0.945313,0 45.544922,-45.535156 z m 0,1.425781 0,0.966797 -43.162109,43.142578 -0.964844,0 44.126953,-44.109375 z m 0,1.433594 0,0.966797 -41.716797,41.708984 -0.964844,0 42.681641,-42.675781 z m 0,1.4375 0,0.951172 -40.308594,40.287109 -0.949218,0 41.257812,-41.238281 z m 0,1.439453 0,0.955078 -38.851562,38.84375 -0.958985,0 39.810547,-39.798828 z m 0,1.445312 0,0.9375 -37.433594,37.416016 -0.939453,0 38.373047,-38.353516 z m 0,1.429688 0,0.949219 -35.986328,35.974609 -0.945313,0 36.931641,-36.923828 z m 0,1.425781 0,0.964844 -34.548828,34.533203 -0.964844,0 35.513672,-35.498047 z m 0,1.435547 0,0.976562 -33.091797,33.085938 -0.976562,0 34.068359,-34.0625 z m 0,1.445312 0,0.949219 -31.683594,31.667969 -0.949218,0 32.632812,-32.617188 z m 0,1.441407 0,0.957031 -30.226562,30.21875 -0.958985,0 31.185547,-31.175781 z m 0,1.443359 0,0.9375 -28.808594,28.794922 -0.939453,0 29.748047,-29.732422 z m 0,1.431641 0,0.949219 -27.361328,27.351562 -0.945313,0 28.306641,-28.300781 z m 0,1.423828 0,0.964844 -25.923828,25.912109 -0.966797,0 26.890625,-26.876953 z m 0,1.4375 0,0.964844 -24.478516,24.474609 -0.964843,0 25.443359,-25.439453 z m 0,1.431641 0,0.949218 -23.070312,23.058594 -0.949219,0 24.019531,-24.007812 z m 0,1.443359 0,0.957031 -21.613281,21.607422 -0.958985,0 22.572266,-22.564453 z m -74.650391,1.382812 c -0.188178,0.450948 -0.335418,0.92227 -0.445312,1.408203 L 7.859375,81.830078 C 7.817934,81.54303 7.784913,81.254184 7.763672,80.960938 l 9.867187,-9.861329 z m 74.650391,0.05664 0,0.939453 -20.195312,20.185547 -0.939454,0 21.134766,-21.125 z m 0,1.4375 0,0.947266 -18.748047,18.740234 -0.945312,0 19.693359,-19.6875 z M 17.080078,73.08789 c -0.05403,0.348757 -0.08678,0.703194 -0.09766,1.064453 L 8.0976562,83.037109 C 8.0324698,82.775546 7.9719263,82.512158 7.9238281,82.244141 l 9.1562499,-9.15625 z m 75.201172,0.925781 0,0.964844 -17.310547,17.302734 -0.966797,0 L 92.28125,74.013671 Z M 16.978516,74.61914 c 0.007,0.298619 0.02778,0.594407 0.06445,0.884765 l -8.6230471,8.619141 c -0.08309,-0.236713 -0.159804,-0.47555 -0.2285157,-0.71875 L 16.978513,74.61914 Z m 75.302734,0.833984 0,0.957031 -15.878906,15.871094 -0.951172,0 16.830078,-16.828125 z m -75.171875,0.480469 c 0.04714,0.264765 0.107004,0.523491 0.177734,0.779297 L 8.8378906,85.162109 C 8.7360576,84.940076 8.6414264,84.715349 8.5527344,84.486328 l 8.5566406,-8.552734 z m 75.171875,0.960937 0,0.947266 -14.445312,14.439453 -0.947266,0 L 92.28125,76.89453 Z m -74.884766,0.191407 c 0.07602,0.233081 0.155121,0.465581 0.25,0.689453 L 9.3164062,86.103516 C 9.2014109,85.901239 9.0957563,85.693708 8.9921875,85.484375 l 8.4042965,-8.398437 z m 0.41211,1.02539 c 0.100737,0.211485 0.209132,0.417589 0.326172,0.619141 L 9.8691406,86.994141 C 9.7397454,86.806193 9.6228354,86.609466 9.5039062,86.414062 l 8.3046878,-8.302734 z m 74.472656,0.228516 0,0.957031 -12.988281,12.984375 -0.958985,0 L 92.28125,78.339843 Z M 18.314453,79.02539 c 0.124468,0.195833 0.257067,0.385633 0.396485,0.570312 l -8.226563,8.220703 c -0.145913,-0.177867 -0.278229,-0.366639 -0.414063,-0.552734 l 8.244141,-8.238281 z m 73.966797,0.751953 0,0.285156 c 0,0.232195 -0.02247,0.458562 -0.03516,0.6875 l -11.5,11.498047 c -0.227628,0.01254 -0.452748,0.0332 -0.683594,0.0332 l -0.291016,0 12.509766,-12.503906 z m -73.367188,0.08984 c 0.142934,0.17468 0.297139,0.339099 0.453126,0.501953 l -8.203126,8.199218 c -0.156622,-0.161548 -0.305576,-0.32998 -0.453124,-0.5 l 8.203124,-8.201171 z m 0.69336,0.746093 c 0.160921,0.155224 0.323508,0.308742 0.496094,0.451172 l -8.201172,8.199219 c -0.16885,-0.147475 -0.33762,-0.294718 -0.498047,-0.451172 l 8.203125,-8.199219 z m 0.78125,0.664063 c 0.18236,0.138314 0.369197,0.270817 0.5625,0.394531 l -8.238281,8.238281 C 12.528621,89.774948 12.340218,89.645112 12.164062,89.5 l 8.22461,-8.222656 z m 71.832031,0 c -0.03691,0.376444 -0.09593,0.745849 -0.166015,1.111328 l -9.669922,9.666016 c -0.365507,0.06997 -0.734862,0.129217 -1.111328,0.166015 L 92.220703,81.277344 Z M 21.25,81.853516 c 0.200258,0.116998 0.405108,0.225291 0.615234,0.326172 l -8.304687,8.300781 C 13.366348,90.361621 13.171169,90.244437 12.984375,90.115234 L 21.25,81.853516 Z m 0.951172,0.488281 c 0.224828,0.0961 0.457228,0.17881 0.691406,0.255859 l -8.402344,8.398438 c -0.208858,-0.103932 -0.415389,-0.210852 -0.617187,-0.326172 l 8.328125,-8.328125 z m 6.646484,0.04687 L 19,92.234375 c -0.290772,-0.02198 -0.576689,-0.05776 -0.861328,-0.09961 l 9.314453,-9.310547 c 0.481313,-0.106464 0.947179,-0.252301 1.394531,-0.435547 z m -5.589844,0.316406 c 0.257061,0.07206 0.517028,0.133432 0.783204,0.181641 L 15.486328,91.4375 c -0.229856,-0.08965 -0.454953,-0.186166 -0.677734,-0.289062 l 8.449218,-8.44336 z m 3.59375,0.22461 -9.144531,9.138671 c -0.260756,-0.04788 -0.51688,-0.107801 -0.771484,-0.171875 l 8.878906,-8.876953 c 0.351803,-0.0092 0.697028,-0.03964 1.037109,-0.08984 z m -2.396484,0.02148 c 0.294139,0.03859 0.593781,0.06021 0.896484,0.06836 l -8.783203,8.783203 c -0.247446,-0.07052 -0.489775,-0.150916 -0.730468,-0.236328 l 8.617187,-8.615234 z m 67.457031,0.05078 C 91.794497,83.47997 91.65033,83.9466 91.478516,84.400381 l -7.080078,7.080078 c -0.454939,0.172146 -0.92305,0.315927 -1.402344,0.433593 l 8.916015,-8.912109 z m -0.78125,2.226563 c -0.428263,0.919051 -0.958849,1.780038 -1.591797,2.55664 l -1.755859,1.75586 c -0.776707,0.632744 -1.637528,1.163745 -2.556641,1.591796 l 5.904297,-5.904296 z"
     id="path4154"
     inkscape:connector-curvature="0" />
</svg>
