<?xml version="1.0" encoding="UTF-8" standalone="no"?>
<svg
   xmlns:dc="http://purl.org/dc/elements/1.1/"
   xmlns:cc="http://creativecommons.org/ns#"
   xmlns:rdf="http://www.w3.org/1999/02/22-rdf-syntax-ns#"
   xmlns:svg="http://www.w3.org/2000/svg"
   xmlns="http://www.w3.org/2000/svg"
   xmlns:sodipodi="http://sodipodi.sourceforge.net/DTD/sodipodi-0.dtd"
   xmlns:inkscape="http://www.inkscape.org/namespaces/inkscape"
   viewBox="0 0 100 100"
   version="1.1"
   x="0px"
   y="0px"
   id="svg4706"
   inkscape:version="0.91 r13725"
   sodipodi:docname="3.svg"
   width="100"
   height="100">
  <metadata
     id="metadata4726">
    <rdf:RDF>
      <cc:Work
         rdf:about="">
        <dc:format>image/svg+xml</dc:format>
        <dc:type
           rdf:resource="http://purl.org/dc/dcmitype/StillImage" />
        <dc:title></dc:title>
      </cc:Work>
    </rdf:RDF>
  </metadata>
  <defs
     id="defs4724" />
  <sodipodi:namedview
     pagecolor="#ffffff"
     bordercolor="#666666"
     borderopacity="1"
     objecttolerance="10"
     gridtolerance="10"
     guidetolerance="10"
     inkscape:pageopacity="0"
     inkscape:pageshadow="2"
     inkscape:window-width="1680"
     inkscape:window-height="987"
     id="namedview4722"
     showgrid="false"
     inkscape:zoom="1.888"
     inkscape:cx="50"
     inkscape:cy="62.5"
     inkscape:window-x="1672"
     inkscape:window-y="-8"
     inkscape:window-maximized="1"
     inkscape:current-layer="svg4706" />
  <g
     id="g5268"
     transform="translate(0,25)">
    <path
       inkscape:connector-curvature="0"
       id="path4708"
       d="m 21.000024,-19.499994 -15.4999995,15.494141 0,0.482422 15.9804695,-15.976562 -0.48047,0 z m 1.43555,0 -16.9355495,16.929688 0,0.482422 17.4199195,-17.41211 -0.48437,0 z m 1.44726,0 -18.3828095,18.375 0,0.460938 18.8378895,-18.835938 -0.45508,0 z m 1.42969,0 -19.8124995,19.804688 0,0.484375 20.2988295,-20.289063 -0.48633,0 z m 1.44727,0 -21.2597695,21.248047 0,0.480469 21.7343795,-21.728516 -0.47461,0 z m 1.42578,0 -22.6855495,22.681641 0,0.498047 23.1933595,-23.179688 -0.50781,0 z m 1.43945,0 -24.1249995,24.115235 0,0.484375 24.6054695,-24.59961 -0.48047,0 z m 1.43555,0 -25.5605495,25.552735 0,0.480468 26.0449195,-26.033203 -0.48437,0 z m 1.44726,0 L 5.5000245,7.4961 l 0,0.462891 27.4628895,-27.458985 -0.45508,0 z m 1.42188,0 -28.4296895,28.425782 0,0.474609 28.9121095,-28.900391 -0.48242,0 z m 1.44336,0 -29.8730495,29.855469 0,0.484375 30.3476595,-30.339844 -0.47461,0 z m 1.42578,0 -31.2988295,31.292969 0,0.496094 31.8066395,-31.789063 -0.50781,0 z m 1.43945,0 -32.7382795,32.72461 0,0.488281 33.2187495,-33.212891 -0.48047,0 z m 1.43555,0 -34.1738295,34.164063 0,0.478516 34.6582095,-34.642579 -0.48438,0 z m 1.44727,0 -35.6210995,35.605469 0,0.466797 36.0761695,-36.072266 -0.45507,0 z m 1.43359,0 -37.0546895,37.048829 0,0.472656 37.5371095,-37.521485 -0.48242,0 z m 1.44336,0 -38.4980495,38.476563 0,0.484375 38.9726595,-38.960938 -0.47461,0 z m 1.42578,0 -39.9238295,39.916016 0,0.494141 40.4316395,-40.410157 -0.50781,0 z m 1.43945,0 -41.3632795,41.345703 0,0.490235 41.8437495,-41.835938 -0.48047,0 z m 1.43555,0 -42.7988295,42.785157 0,0.478515 43.2832095,-43.263672 -0.48438,0 z m 1.44727,0 -44.2460995,44.228516 0,0.466797 44.7011695,-44.695313 -0.45507,0 z m 1.42187,0 -45.6679695,45.660157 0,0.470703 46.1503895,-46.13086 -0.48242,0 z m 1.443361,0 -47.1113305,47.083985 0,0.488281 47.5859395,-47.572266 -0.47461,0 z m 1.42578,0 -48.5371105,48.527344 0,0.490235 49.0449205,-49.017579 -0.50781,0 z m 1.43946,0 -49.9765705,49.955079 0,0.492182 50.4570295,-50.447261 -0.480459,0 z m 1.43554,0 -51.4121105,51.396482 0,0.47657 51.8964895,-51.873052 -0.484379,0 z m 1.44727,0 -52.8593805,52.837891 0,0.46875 53.3144605,-53.306641 -0.45508,0 z m 1.42969,0 -54.2890705,54.26758 0,0.48437 54.7753895,-54.75195 -0.48632,0 z m 1.44726,0 -55.7363305,55.70508 0,0.49023 56.2109395,-56.19531 -0.47461,0 z m 1.42578,0 -57.1621105,57.15039 0,0.488281 57.6699205,-57.638671 -0.50781,0 z m 1.43946,0 -58.6015705,58.576171 0,0.49414 59.0820295,-59.07031 -0.480459,0 z m 1.43554,0 -60.0371105,60.01953 0,0.47461 60.5214895,-60.49414 -0.484379,0 z m 1.44727,0 -61.4843805,61.45898 0,0.47266 61.9394605,-61.93164 -0.45508,0 z m 1.42187,0 -62.9062505,62.89648 0,0.4668 63.3886705,-63.363279 -0.48242,0 z m 1.44336,0 -64.3496105,64.3125 0,0.49219 64.8242205,-64.80469 -0.47461,0 z m 1.42578,0 -65.7753905,65.76172 0,0.48633 66.2832105,-66.24805 -0.50782,0 z m 1.43946,0 -67.2148505,67.185551 0,0.496089 67.6953105,-67.68164 -0.48046,0 z m 1.43554,0 -68.6503905,68.628911 0,0.474609 69.1347705,-69.10352 -0.48438,0 z m 1.44727,0 -70.0976605,70.06836 0,0.47461 70.5527405,-70.54297 -0.45508,0 z m 1.43359,0 -71.5312505,71.51953 0,0.46484 72.0136705,-71.98437 -0.48242,0 z m 1.44336,0 -72.9746105,72.93164 0,0.49609 73.4492205,-73.42773 -0.47461,0 z m 1.41797,0.0078 -74.3847705,74.371097 c 0.002,0.15387 0.0172,0.3043 0.0234,0.45703 L 80.374985,-19.466803 c -0.16112,-0.007 -0.32002,-0.02359 -0.48242,-0.02539 z m -59.83594,0.0039 c -0.17995,0.0026 -0.35678,0.01636 -0.53515,0.02539 L 5.5371345,-5.480481 c -0.009,0.176414 -0.0227,0.351329 -0.0254,0.529297 L 20.056655,-19.488295 Z m 61.20313,0.06836 -75.6836005,75.65039 c 0.0149,0.14693 0.0472,0.28795 0.0664,0.43359 L 81.675795,-19.35548 c -0.13976,-0.01856 -0.27506,-0.04985 -0.41601,-0.06445 z m -62.76758,0.03711 c -0.18868,0.02282 -0.3741,0.05603 -0.56055,0.08594 L 5.7051045,-7.07618 c -0.0302,0.187685 -0.0629,0.374503 -0.0859,0.564453 L 18.492255,-19.38282 Z m 64.01172,0.154297 -76.7363305,76.712884 c 0.025,0.131641 0.0516,0.262191 0.0801,0.39258 L 82.906295,-19.146495 c -0.13356,-0.02947 -0.26746,-0.05622 -0.40234,-0.08203 z m -65.7793,0.177734 c -0.21694,0.05383 -0.43536,0.102685 -0.64844,0.166016 l -9.9589805,9.95703 c -0.063,0.211774 -0.1124,0.428936 -0.16602,0.644531 L 16.724635,-19.050792 Z m 66.94727,0.101562 -77.6269605,77.593749 c 0.0346,0.1255 0.0598,0.25476 0.0977,0.37891 L 84.035225,-18.857433 c -0.11874,-0.0363 -0.24331,-0.05844 -0.36328,-0.0918 z m 1.07617,0.345704 -78.3535205,78.341795 c 0.0409,0.112719 0.0795,0.22646 0.12305,0.33789 L 85.099635,-18.47462 c -0.11603,-0.04555 -0.23413,-0.08624 -0.35156,-0.128906 z m -70.16602,0.246093 c -0.2971,0.124609 -0.5822,0.270941 -0.86914,0.414063 l -6.6542905,6.652343 c -0.14359,0.287655 -0.29104,0.573218 -0.41602,0.871094 l 7.9394505,-7.9375 z m 71.19532,0.167969 -78.9824305,78.935542 c 0.051,0.113691 0.10832,0.22379 0.16211,0.33594 L 86.097685,-18.035167 c -0.10683,-0.05139 -0.21209,-0.10542 -0.32031,-0.154297 z m 0.96093,0.462891 -79.4687505,79.455082 c 0.0556,0.102739 0.11982,0.19951 0.17774,0.30078 L 87.054715,-17.535167 c -0.10704,-0.06152 -0.20771,-0.132511 -0.31641,-0.191406 z m 0.89649,0.544922 -79.8300805,79.79492 c 0.065,0.102329 0.12203,0.20993 0.18945,0.31055 L 87.933624,-16.999994 c -0.0967,-0.06488 -0.20057,-0.118996 -0.29883,-0.181639 z m 0.84765,0.585937 -80.0878905,80.064452 c 0.0666,0.0902 0.13263,0.18093 0.20118,0.269531 L 88.759795,-16.388683 c -0.091,-0.0707 -0.18463,-0.138427 -0.27735,-0.207031 z m -77.42578,0.34375 c -0.85059,0.681715 -1.6226605,1.454349 -2.3046805,2.304687 l 2.3046805,-2.304687 z m 78.23828,0.292968 -80.2714805,80.236325 c 0.0733,0.0862 0.15333,0.16557 0.22852,0.25 L 89.533235,-15.742199 c -0.0803,-0.07155 -0.15647,-0.14698 -0.23829,-0.216797 z m 0.74805,0.679687 -80.3378905,80.306638 c 0.0798,0.0819 0.16051,0.16219 0.24219,0.24219 l 80.3378905,-80.30664 c -0.0799,-0.08179 -0.16046,-0.16226 -0.24219,-0.242188 z m 0.70117,0.746095 -80.30078,80.253902 c 0.0879,0.0786 0.172,0.16173 0.26172,0.23828 l 80.26563,-80.242182 c -0.0729,-0.08561 -0.15179,-0.166084 -0.22657,-0.25 z m 0.64844,0.777344 -80.15625,80.142578 c 0.0897,0.0697 0.18213,0.13548 0.273439,0.203121 l 80.099611,-80.056637 c -0.0716,-0.09701 -0.142941,-0.193877 -0.2168,-0.289062 z m 0.61133,0.828125 -79.95508,79.917963 c 0.10089,0.0679 0.20988,0.124 0.3125,0.18946 l 79.82422,-79.808595 c -0.0626,-0.09825 -0.11684,-0.202163 -0.18164,-0.298828 z m 0.54297,0.892578 -79.59766,79.572266 c 0.0992,0.057 0.19237,0.12303 0.29297,0.17773 l 79.48438,-79.447261 c -0.056,-0.103473 -0.1213,-0.200759 -0.17969,-0.302735 z m 0.494139,0.953125 -79.14649,79.111331 c 0.10811,0.0521 0.21468,0.10674 0.32422,0.15625 l 78.97071,-78.958987 c -0.0471,-0.104255 -0.0991,-0.205634 -0.14844,-0.308594 z m 0.433591,0.988281 -78.57617,78.564449 c 0.111059,0.0436 0.22359,0.084 0.335939,0.125 L 93.603544,-9.7422 c -0.0426,-0.117454 -0.0834,-0.235505 -0.128909,-0.351562 z m 0.38086,1.058594 -77.92578,77.880855 c 0.12969,0.04 0.26531,0.0651 0.39648,0.10156 L 93.953155,-8.65431 c -0.0349,-0.126078 -0.0595,-0.256144 -0.0977,-0.380858 z m 0.29297,1.136718 -77.05859,77.042968 c 0.1312,0.029 0.26205,0.0585 0.39453,0.084 L 94.232445,-7.48047 c -0.0265,-0.140023 -0.0535,-0.279359 -0.084,-0.417969 z m 0.20898,1.226562 -76.05859,76.025396 c 0.146,0.0196 0.28824,0.0511 0.43555,0.0664 l 75.6875,-75.671873 c -0.0146,-0.142078 -0.0458,-0.27905 -0.0645,-0.419922 z m 0.11133,1.326172 -74.83789,74.812504 c 0.150039,0.006 0.29807,0.0215 0.44922,0.0234 L 94.492215,-4.88676 c -0.002,-0.154508 -0.017,-0.30563 -0.0234,-0.458985 z m 0.0312,1.414063 -73.46289,73.43164 0.48047,0 72.98242,-72.972656 0,-0.458984 z m 0,1.4375 -72.00586,71.99414 0.45899,0 71.54687,-71.517578 0,-0.476562 z m 0,1.435547 -70.59961,70.558593 0.5,0 70.09961,-70.080078 0,-0.478515 z m 0,1.43164 -69.14062,69.126953 0.47656,0 68.66406,-68.626953 0,-0.5 z m 0,1.433594 -67.72265,67.693359 0.50195,0 67.2207,-67.207031 0,-0.486328 z m 0,1.4375 -66.27539,66.255859 0.4707,0 65.80469,-65.773437 0,-0.482422 z m 0,1.445312 -64.83789,64.810547 0.48047,0 64.35742,-64.349609 0,-0.460938 z m 0,1.427735 -63.39258,63.382812 0.45899,0 62.93359,-62.908203 0,-0.474609 z m 0,1.431641 -61.98633,61.951171 0.5,0 61.48633,-61.46875 0,-0.482421 z m 0,1.435546 -60.52734,60.515625 0.47656,0 60.05078,-60.017578 0,-0.498047 z m 0,1.431641 -59.10937,59.083984 0.50195,0 58.60742,-58.595703 0,-0.488281 z m 0,1.439453 -57.66211,57.644531 0.47071,0 57.1914,-57.164062 0,-0.480469 z m 0,1.44336 -56.22461,56.201171 0.48047,0 55.74414,-55.736328 0,-0.464843 z m 0,1.429687 -54.79297,54.771484 0.48438,0 54.30859,-54.287109 0,-0.484375 z m 0,1.441406 -53.36133,53.330078 0.5,0 52.86133,-52.845703 0,-0.484375 z m 0,1.4375 -51.90234,51.892578 0.47656,0 51.42578,-51.398437 0,-0.494141 z m 0,1.429688 -50.48437,50.46289 0.50195,0 49.98242,-49.972656 0,-0.490234 z m 0,1.441406 -49.03711,49.021484 0.47071,0 48.5664,-48.544921 0,-0.476563 z m 0,1.441406 -47.59961,47.580078 0.48047,0 47.11914,-47.113281 0,-0.466797 z m 0,1.433594 -46.15429,46.146484 0.45898,0 45.69531,-45.675781 0,-0.470703 z m 0,1.423828 -44.74804,44.722656 0.5,0 44.24804,-44.236328 0,-0.486328 z m 0,1.441406 -43.28906,43.28125 0.47656,0 42.8125,-42.789062 0,-0.492188 z m 0,1.427735 -41.87109,41.853515 0.50195,0 41.36914,-41.361328 0,-0.492187 z m 0,1.441406 -40.42383,40.412109 0.47071,0 39.95312,-39.935547 0,-0.476562 z m 0,1.441406 -38.98633,38.970703 0.48047,0 38.50586,-38.499999 0,-0.470704 z m 0,1.447265 -37.52929,37.523438 0.45898,0 37.07031,-37.054688 0,-0.46875 z m 0,1.41992 -36.12304,36.103518 0.5,0 35.62304,-35.613279 0,-0.49024 z m 0,1.447269 -34.66406,34.65625 0.47656,0 34.1875,-34.16797 0,-0.48828 z m 0,1.42383 -33.24609,33.232419 0.50195,0 32.74414,-32.73828 0,-0.49414 z m 0,1.44336 -31.79883,31.789059 0.47071,0 31.32812,-31.314449 0,-0.47461 z m 0,1.43945 -30.36133,30.349609 0.48047,0 29.88086,-29.876949 0,-0.47266 z m 0,1.4375 -28.91601,28.912109 0.45898,0 28.45703,-28.44531 0,-0.4668 z m 0,1.417969 -27.50976,27.49414 0.5,0 27.00976,-27.001949 0,-0.49219 z m 0,1.44922 -26.05078,26.04492 0.47656,0 25.57422,-25.56055 0,-0.48437 z m 0,1.42187 -24.63281,24.62305 0.50195,0 24.13086,-24.125 0,-0.49805 z m 0,1.44531 -23.18554,23.17774 0.4707,0 22.71484,-22.705079 0,-0.472661 z m 0,1.4375 -21.74804,21.74024 0.48046,0 21.26758,-21.26563 0,-0.47461 z m 0,1.431651 -20.3164,20.308589 0.48437,0 19.83203,-19.82227 0,-0.48632 z m 0,1.433589 -18.88476,18.875 0.5,0 18.38476,-18.37891 0,-0.49609 z m 0,1.45312 -17.42578,17.42188 0.47656,0 16.94922,-16.939449 0,-0.48243 z m 0,1.41993 -16.00781,16.00195 0.50195,0 15.50586,-15.501949 0,-0.5 z m -0.0117,1.45703 -14.53711,14.533201 c 0.16618,-0.002 0.32932,-0.0174 0.49414,-0.0254 l 14.01758,-14.00977 c 0.008,-0.1661 0.0228,-0.33057 0.0254,-0.49804 z m -0.10547,1.54297 -12.89062,12.88671 c 0.19166,-0.023 0.379,-0.0576 0.56836,-0.0879 l 12.23633,-12.23437 c 0.0301,-0.18798 0.0631,-0.3742 0.0859,-0.56445 z m -0.33203,1.77539 -10.78125,10.77929 c 0.20757,-0.0514 0.41706,-0.10002 0.6211,-0.160149 l 10,-9.9961 c 0.0605,-0.20486 0.10844,-0.41462 0.16015,-0.62304 z m -0.67187,2.08203 -8.03125,8.02539 c 0.32081,-0.13265 0.63039,-0.2853 0.93945,-0.43945 l 6.6543,-6.65039 c 0.15354,-0.30765 0.30527,-0.61624 0.4375,-0.93555 z m -2.11133,3.5664 -2.34766,2.34766 c 0.86779,-0.69272 1.65478,-1.48 2.34766,-2.34766 z"
       style="color:#000000;fill:#000000" />
    <path
       inkscape:connector-curvature="0"
       id="path4710"
       d="M 19.9375,-20 C 11.705017,-20 5,-13.294978 5,-5.0625 l 0,60.125 C 5,63.294978 11.705017,70 19.9375,70 l 60.125,0 C 88.294974,70 95,63.294976 95,55.0625 l 0,-60.125 C 95,-13.294976 88.294974,-20 80.0625,-20 l -60.125,0 z m 0,2.71875 60.125,0 c 6.764896,0 12.21875,5.45385 12.21875,12.21875 l 0,60.125 c 0,6.7649 -5.453854,12.21875 -12.21875,12.21875 l -60.125,0 c -6.764907,0 -12.21875,-5.453848 -12.21875,-12.21875 l 0,-60.125 c 0,-6.764902 5.453843,-12.21875 12.21875,-12.21875 z"
       style="color:#000000" />
    <path
       inkscape:connector-curvature="0"
       id="path4712"
       d="m 65.797872,0.585103 c 0,4.759051 3.857971,8.617022 8.617022,8.617022 4.759051,0 8.617022,-3.857971 8.617022,-8.617022 0,-4.759051 -3.857971,-8.617021 -8.617022,-8.617021 -4.759051,0 -8.617022,3.85797 -8.617022,8.617021 z"
       style="color:#000000" />
    <path
       inkscape:connector-curvature="0"
       id="path4714"
       d="m 41.382978,24.999998 c 0,4.75905 3.857971,8.617021 8.617022,8.617021 4.75905,0 8.617021,-3.857971 8.617021,-8.617021 0,-4.759051 -3.857971,-8.617022 -8.617021,-8.617022 -4.759051,0 -8.617022,3.857971 -8.617022,8.617022 z"
       style="color:#000000" />
    <path
       inkscape:connector-curvature="0"
       id="path4716"
       d="m 16.968084,49.414892 c 0,4.759051 3.85797,8.617022 8.617021,8.617022 4.759051,0 8.617022,-3.857971 8.617022,-8.617022 0,-4.759051 -3.857971,-8.617022 -8.617022,-8.617022 -4.759051,0 -8.617021,3.857971 -8.617021,8.617022 z"
       style="color:#000000" />
  </g>
</svg>
