<?xml version="1.0" encoding="UTF-8" standalone="no"?>
<svg
   xmlns:dc="http://purl.org/dc/elements/1.1/"
   xmlns:cc="http://creativecommons.org/ns#"
   xmlns:rdf="http://www.w3.org/1999/02/22-rdf-syntax-ns#"
   xmlns:svg="http://www.w3.org/2000/svg"
   xmlns="http://www.w3.org/2000/svg"
   xmlns:sodipodi="http://sodipodi.sourceforge.net/DTD/sodipodi-0.dtd"
   xmlns:inkscape="http://www.inkscape.org/namespaces/inkscape"
   viewBox="0 0 100 100"
   x="0px"
   y="0px"
   id="svg6374"
   version="1.1"
   inkscape:version="0.91 r13725"
   sodipodi:docname="5.svg"
   width="100"
   height="100">
  <metadata
     id="metadata6386">
    <rdf:RDF>
      <cc:Work
         rdf:about="">
        <dc:format>image/svg+xml</dc:format>
        <dc:type
           rdf:resource="http://purl.org/dc/dcmitype/StillImage" />
        <dc:title></dc:title>
      </cc:Work>
    </rdf:RDF>
  </metadata>
  <defs
     id="defs6384" />
  <sodipodi:namedview
     pagecolor="#ffffff"
     bordercolor="#666666"
     borderopacity="1"
     objecttolerance="10"
     gridtolerance="10"
     guidetolerance="10"
     inkscape:pageopacity="0"
     inkscape:pageshadow="2"
     inkscape:window-width="1680"
     inkscape:window-height="987"
     id="namedview6382"
     showgrid="false"
     inkscape:zoom="1.888"
     inkscape:cx="50"
     inkscape:cy="62.5"
     inkscape:window-x="1672"
     inkscape:window-y="-8"
     inkscape:window-maximized="1"
     inkscape:current-layer="svg6374" />
  <path
     d="M 19.9375,5 C 11.705017,5 5,11.705022 5,19.9375 l 0,60.125 C 5,88.294978 11.705017,95 19.9375,95 l 60.125,0 C 88.294974,95 95,88.294976 95,80.0625 l 0,-60.125 C 95,11.705024 88.294974,5 80.0625,5 l -60.125,0 z m 0,2.71875 0.279297,0 -12.498047,12.492188 0,-0.273438 c 0,-0.241406 0.021454,-0.476965 0.035156,-0.714844 L 19.226562,7.753906 c 0.236603,-0.01355 0.470847,-0.03516 0.710938,-0.03516 z m 0.761719,0 0.964843,0 -13.945312,13.9375 0,-0.960938 L 20.699219,7.71875 Z m 1.419922,0 0.974609,0 -15.375,15.367188 0,-0.96875 L 22.119141,7.71875 Z m 1.458984,0 0.960937,0 -16.820312,16.8125 0,-0.958984 L 23.578125,7.71875 Z m 1.4375,0 0.951172,0 -18.248047,18.244141 0,-0.953125 L 25.015625,7.71875 Z m 1.457031,0 0.933594,0 -19.6875,19.677734 0,-0.933593 L 26.472656,7.71875 Z m 1.414063,0 0.955078,0 -21.123047,21.115234 0,-0.953125 L 27.886719,7.71875 Z m 1.4375,0 0.964843,0 -22.570312,22.558594 0,-0.960938 L 29.324219,7.71875 Z m 1.419922,0 0.966797,0 -10.38086,10.378906 c -1.345722,0.766656 -2.463405,1.885009 -3.230469,3.230469 L 7.71875,31.707031 l 0,-0.966797 L 30.744141,7.71875 Z m 1.449218,0 0.958985,0 -9.472656,9.466797 c -0.482414,0.109009 -0.950466,0.255218 -1.398438,0.441406 L 32.193359,7.71875 Z m 1.435547,0 0.951172,0 -9.265625,9.263672 c -0.355364,0.01108 -0.705568,0.04285 -1.048828,0.0957 L 33.628906,7.71875 Z m 1.457032,0 0.933593,0 -9.332031,9.326172 c -0.285087,-0.03647 -0.574094,-0.05655 -0.867188,-0.06445 L 35.085938,7.71875 Z m 1.414062,0 0.955078,0 -9.572266,9.568359 c -0.254188,-0.07024 -0.512354,-0.130782 -0.77539,-0.177734 L 36.5,7.71875 Z m 1.4375,0 0.964844,0 -9.941406,9.935547 c -0.229134,-0.09766 -0.464311,-0.181892 -0.703126,-0.259766 L 37.9375,7.71875 Z m 1.419922,0 0.978516,0 -10.423829,10.421875 c -0.20804,-0.121192 -0.421982,-0.232144 -0.640625,-0.335937 L 39.357422,7.71875 Z m 1.460937,0 0.958985,0 -11.003906,10.998047 C 30.590375,18.578275 30.403041,18.446088 30.208984,18.322266 L 40.818359,7.71875 Z m 1.435547,0 0.951172,0 -11.658203,11.654297 c -0.162018,-0.155534 -0.326239,-0.308572 -0.5,-0.451172 L 42.253906,7.71875 Z m 1.457032,0 0.933593,0 -12.402343,12.396484 C 32.102045,19.944859 31.951426,19.78406 31.798828,19.625 L 43.710938,7.71875 Z m 1.414062,0 0.955078,0 -13.238281,13.232422 C 32.718575,20.758639 32.586926,20.572305 32.449219,20.390625 L 45.125,7.71875 Z m 1.4375,0 0.964844,0 -14.169922,14.164062 C 33.254473,21.667138 33.143338,21.457271 33.023438,21.251953 L 46.5625,7.71875 Z m 1.419922,0 0.966797,0 -15.181641,15.177734 C 33.689138,22.65773 33.606046,22.420441 33.507812,22.191406 L 47.982422,7.71875 Z m 1.449219,0 0.958984,0 -16.333984,16.324219 c -0.04778,-0.264153 -0.108414,-0.52216 -0.179688,-0.777344 L 49.431641,7.71875 Z m 1.435547,0 0.951171,0 -17.628906,17.625 c -0.0083,-0.298709 -0.0304,-0.594403 -0.06836,-0.884766 L 50.867188,7.71875 Z m 1.457031,0 0.933593,0 -19.162109,19.152344 c 0.05044,-0.336291 0.08336,-0.677563 0.09375,-1.025391 L 52.324219,7.71875 Z m 1.414062,0 0.955078,0 -21.132812,21.126953 c 0.181803,-0.444199 0.325506,-0.907079 0.431641,-1.384765 L 53.738281,7.71875 Z m 1.4375,0 0.964844,0 -48.421875,48.400391 0,-0.962891 22.046875,-22.039062 c 1.405318,-0.781596 2.567323,-1.942776 3.349609,-3.347657 L 55.175781,7.71875 Z m 1.419922,0 0.974609,0 -49.851562,49.830078 0,-0.960937 L 56.595703,7.71875 Z m 1.460938,0 0.958984,0 -51.296875,51.269531 0,-0.955078 L 58.056641,7.71875 Z m 1.435547,0 0.951171,0 -52.724609,52.712891 0,-0.955079 L 59.492188,7.71875 Z m 1.457031,0 0.933593,0 -54.164062,54.138672 0,-0.935547 L 60.949219,7.71875 Z m 1.414062,0 0.955078,0 -55.599609,55.582031 0,-0.949219 L 62.363281,7.71875 Z m 1.4375,0 0.964844,0 -57.046875,57.021484 0,-0.96289 L 63.800781,7.71875 Z m 1.419922,0 0.966797,0 -58.46875,58.458984 0,-0.964843 L 65.220703,7.71875 Z m 1.449219,0 0.958984,0 -59.910156,59.876953 0,-0.951172 L 66.669922,7.71875 Z m 1.435547,0 0.951172,0 -61.337891,61.324219 0,-0.957031 L 68.105469,7.71875 Z m 1.457031,0 0.933594,0 -62.777344,62.748047 0,-0.935547 61.84375,-61.8125 z m 1.414062,0 0.955079,0 -64.212891,64.191406 0,-0.947265 L 70.976562,7.71875 Z m 1.4375,0 0.964844,0 -65.660156,65.630859 0,-0.96289 L 72.414062,7.71875 Z m 1.419922,0 0.978516,0 -67.09375,67.082031 0,-0.976562 L 73.833984,7.71875 Z m 1.460938,0 0.958984,0 -68.535156,68.496094 0,-0.949219 L 75.294922,7.71875 Z m 1.435547,0 0.951172,0 -69.962891,69.949219 0,-0.958985 L 76.730469,7.71875 Z m 1.457031,0 0.933594,0 -71.402344,71.369141 0,-0.9375 L 78.1875,7.71875 Z m 1.414062,0 0.460938,0 c 0.158963,0 0.313241,0.01747 0.470703,0.02344 L 70.197266,18.074219 c -1.374815,0.773659 -2.514094,1.913131 -3.289063,3.287109 L 45.759766,42.503906 c -1.35822,0.769924 -2.483572,1.89595 -3.253907,3.253906 L 21.326172,66.929688 c -1.343933,0.766538 -2.460224,1.882501 -3.226563,3.226562 L 7.7402344,80.511719 C 7.7347965,80.361391 7.71875,80.214193 7.71875,80.0625 l 0,-0.474609 L 79.601562,7.71875 Z m 1.392579,0.04687 c 0.291344,0.02189 0.578088,0.05583 0.863281,0.09766 l -9.31836,9.314453 c -0.48321,0.107362 -0.951489,0.252753 -1.40039,0.4375 L 80.994141,7.765624 Z M 18.71875,7.779297 7.7792969,18.714844 c 0.036701,-0.371871 0.096931,-0.736492 0.1660156,-1.097656 L 17.623047,7.943359 c 0.360491,-0.06877 0.724556,-0.12755 1.095703,-0.164062 z m 63.533203,0.144531 c 0.268104,0.04829 0.531332,0.110392 0.792969,0.175781 l -8.882813,8.88086 c -0.361263,0.01047 -0.715659,0.04404 -1.064453,0.09766 L 82.251953,7.923828 Z M 16.960938,8.097656 8.0976562,16.958984 c 0.1175554,-0.47107 0.2594342,-0.931516 0.4296876,-1.378906 L 15.582031,8.527344 c 0.447432,-0.170192 0.907798,-0.312201 1.378907,-0.429688 z m 66.466796,0.09961 c 0.246093,0.07006 0.487143,0.149593 0.726563,0.234375 l -8.621094,8.617188 c -0.292952,-0.03803 -0.591155,-0.06052 -0.892578,-0.06836 l 8.787109,-8.783204 z m 1.076172,0.361328 c 0.225835,0.08786 0.446994,0.182561 0.666016,0.283204 l -8.449219,8.447265 C 76.46677,17.218593 76.21005,17.158548 75.947266,17.111328 l 8.55664,-8.552734 z m -69.746094,0.31836 -5.8789058,5.875 c 0.4309537,-0.920495 0.9632142,-1.78352 1.5996098,-2.560547 l 1.716796,-1.714844 c 0.777712,-0.636499 1.641211,-1.16885 2.5625,-1.599609 z m 70.75586,0.128906 c 0.206208,0.102706 0.410051,0.208455 0.609375,0.322266 l -8.330078,8.328125 c -0.22226,-0.09482 -0.452205,-0.175746 -0.683594,-0.251953 L 85.513672,9.00586 Z m 0.910156,0.503907 c 0.196844,0.120057 0.394725,0.238457 0.583984,0.36914 l -8.265624,8.263672 C 78.539296,18.024317 78.332133,17.914222 78.119141,17.8125 l 8.304687,-8.302734 z m 0.859375,0.576172 c 0.185804,0.136205 0.375173,0.267792 0.552735,0.414062 l -8.226563,8.220703 C 79.425834,18.581586 79.237583,18.44855 79.042969,18.32422 l 8.240234,-8.238281 z m 0.791016,0.628906 c 0.173408,0.150662 0.345186,0.302787 0.509765,0.46289 l -8.201172,8.199219 C 80.217936,19.21842 80.050104,19.063087 79.873047,18.917969 l 8.201172,-8.203125 z m 0.751953,0.705078 c 0.158747,0.163332 0.309529,0.333841 0.458984,0.505859 L 81.080078,20.125 C 80.936066,19.949405 80.782213,19.782749 80.625,19.619141 l 8.201172,-8.199219 z m 0.683594,0.757812 c 0.143387,0.17455 0.272572,0.360479 0.40625,0.542969 l -8.240235,8.238281 c -0.122837,-0.192359 -0.253337,-0.378996 -0.390625,-0.560546 l 8.22461,-8.220704 z m 0.623046,0.832032 c 0.127698,0.185621 0.243835,0.379375 0.361329,0.572265 l -8.306641,8.30078 c -0.09951,-0.208476 -0.204947,-0.412514 -0.320312,-0.611328 l 8.265624,-8.261718 z m 0.541016,0.871093 c 0.116903,0.204908 0.224915,0.414782 0.330078,0.626953 l -8.402344,8.398438 c -0.07723,-0.23605 -0.159283,-0.470687 -0.255859,-0.697266 l 8.328125,-8.328125 z m 0.486328,0.953125 c 0.102265,0.222763 0.198075,0.447934 0.28711,0.677735 l -8.556641,8.552734 c -0.04756,-0.26679 -0.108177,-0.527472 -0.179687,-0.785156 l 8.449218,-8.445313 z m 0.408203,1.013672 c 0.08501,0.240185 0.166137,0.481619 0.236329,0.728516 l -8.785157,8.783203 c -0.0079,-0.302742 -0.03003,-0.602291 -0.06836,-0.896484 l 8.617187,-8.615235 z m 0.333985,1.111328 c 0.06463,0.258968 0.123999,0.519856 0.171875,0.785157 l -9.150391,9.146484 c 0.05255,-0.345032 0.08535,-0.695525 0.0957,-1.052734 l 8.882813,-8.878907 z m 0.236328,1.201172 c 0.04095,0.282015 0.07425,0.565502 0.0957,0.853516 l -9.851563,9.851562 c 0.183205,-0.444512 0.326251,-0.90849 0.433594,-1.386718 l 9.322266,-9.31836 z m 0.121094,1.332032 c 0.0053,0.149036 0.02148,0.294935 0.02148,0.445312 l 0,0.466797 -71.910156,71.876953 -0.433594,0 c -0.162254,0 -0.319781,-0.01722 -0.480469,-0.02344 l 10.32227,-10.318357 c 1.392845,-0.778012 2.546563,-1.930435 3.326172,-3.322265 l 21.125,-21.115235 C 55.595941,56.730308 56.727685,55.599418 57.5,54.234375 L 78.675781,33.068359 C 80.01741,32.30258 81.132603,31.18925 81.898438,29.847656 L 92.259766,19.492188 Z m 0.02148,1.396484 0,0.953125 -70.464844,70.439453 -0.943359,0 71.408203,-71.392578 z m -74.654297,1.388672 c -0.1863,0.447703 -0.330252,0.916299 -0.439453,1.398437 l -9.46875,9.462891 0,-0.957031 9.908203,-9.904297 z m 48.820313,0.02734 c -0.184972,0.448775 -0.329888,0.917283 -0.4375,1.40039 L 48.109375,41.597656 c -0.485164,0.108764 -0.955822,0.254623 -1.40625,0.441406 L 66.447266,22.304688 Z m 25.833984,0.01758 0,0.964843 -69.025391,68.994141 -0.964843,0 69.990234,-69.958984 z m 0,1.423828 0,0.978515 -67.568359,67.556641 -0.976563,0 68.544922,-68.535156 z M 17.078121,24.26367 c -0.05293,0.343242 -0.08455,0.693477 -0.0957,1.048828 l -9.263672,9.261719 0,-0.953125 9.359375,-9.357422 z m 48.830078,0.002 c -0.05363,0.348326 -0.08706,0.703683 -0.09766,1.064453 L 49.744141,41.396484 c -0.36197,0.01066 -0.71697,0.04564 -1.066407,0.09961 L 65.908203,24.265625 Z m 26.373047,0.935547 0,0.957031 -66.160156,66.123047 -0.949219,0 67.109375,-67.080078 z m -26.470703,0.607422 c 0.0077,0.301172 0.02855,0.597901 0.06641,0.890625 L 51.105469,41.462891 c -0.292154,-0.03752 -0.588118,-0.06086 -0.888672,-0.06836 l 15.59375,-15.585937 z m -48.830078,0.0078 c 0.0078,0.293115 0.02811,0.582073 0.06445,0.867188 l -9.326172,9.322265 0,-0.933593 9.261719,-9.25586 z m 75.300781,0.822266 0,0.953125 -64.703125,64.689453 -0.958984,0 65.662109,-65.642578 z m -75.171875,0.466797 c 0.0469,0.26306 0.107546,0.521175 0.177734,0.77539 l -9.568359,9.564453 0,-0.951171 9.390625,-9.388672 z m 48.832031,0.0098 c 0.04709,0.262376 0.107471,0.519881 0.177735,0.773438 L 52.302734,41.703125 c -0.254729,-0.07058 -0.513716,-0.128592 -0.777343,-0.175781 l 14.416015,-14.41211 z m 26.339844,0.97461 0,0.935547 -63.285156,63.255859 -0.939453,0 64.224609,-64.191406 z m -74.886719,0.164062 c 0.0777,0.238628 0.160357,0.474153 0.257813,0.703125 l -9.933594,9.929688 0,-0.960938 9.675781,-9.671875 z m 48.837891,0.02148 c 0.0762,0.231908 0.157065,0.460842 0.251953,0.683593 l -13.11523,13.109312 c -0.222825,-0.09478 -0.451617,-0.177817 -0.683594,-0.253906 L 66.232422,28.275391 Z m -48.427734,0.99414 c 0.103761,0.21869 0.214771,0.432537 0.335937,0.640625 L 7.71875,40.330078 l 0,-0.976562 10.085938,-10.083985 z m 48.83789,0.01758 c 0.101475,0.21264 0.210166,0.420467 0.328125,0.623047 L 54.322266,42.554688 c -0.202454,-0.117785 -0.410555,-0.2268 -0.623047,-0.328126 L 66.642578,29.287109 Z m 25.638672,0.22461 0,0.951172 -61.837891,61.818359 -0.945312,0 62.783203,-62.769531 z m -73.960938,0.695312 c 0.123473,0.193643 0.256424,0.379796 0.394532,0.5625 l -10.99609,10.99017 0,-0.957032 10.601562,-10.595703 z m 48.832032,0.002 c 0.124594,0.195268 0.257009,0.384227 0.396484,0.56836 L 55.1875,43.132812 C 55.003309,42.99346 54.81641,42.858845 54.621094,42.734375 l 12.53125,-12.525391 z m 25.128906,0.734375 0,0.964844 -60.400391,60.373047 -0.964843,0 61.365234,-61.337891 z m -24.535156,0.09766 c 0.144751,0.176723 0.300872,0.343214 0.458984,0.507812 L 55.962891,43.787109 C 55.798884,43.629665 55.631113,43.476217 55.455078,43.332031 L 67.746094,31.041016 Z m -48.826172,0.0039 c 0.143123,0.174511 0.296961,0.339279 0.453125,0.501953 L 7.71875,43.197266 l 0,-0.955078 11.201172,-11.197266 z m 49.527344,0.746094 c 0.163482,0.15724 0.328439,0.312978 0.503906,0.457031 L 56.658203,44.533203 C 56.514601,44.358508 56.361761,44.192095 56.205078,44.029297 L 68.447266,31.791016 Z m -48.826172,0.0039 c 0.159258,0.152983 0.319613,0.304826 0.490234,0.445312 L 7.71875,44.626953 l 0,-0.933594 11.902344,-11.898437 z m 72.660156,0.574219 0,0.966797 -58.955078,58.945312 -0.964844,0 59.919922,-59.912109 z m -71.890625,0.08008 c 0.18097,0.137169 0.366853,0.267826 0.558594,0.390625 L 7.71875,46.066406 l 0,-0.949218 12.671875,-12.667969 z m 48.835937,0.0039 c 0.181909,0.137648 0.367781,0.269442 0.560547,0.392578 L 57.259766,45.371094 C 57.136542,45.178213 57.00494,44.992555 56.867188,44.810547 L 69.226562,32.453125 Z m -47.978515,0.568359 c 0.205252,0.120002 0.415244,0.230929 0.630859,0.333985 L 7.71875,47.509766 l 0,-0.962891 13.529297,-13.525391 z m 48.849609,0.01367 c 0.198664,0.115378 0.403007,0.220768 0.611328,0.320313 l -12.941402,12.93545 c -0.09997,-0.20893 -0.206372,-0.414078 -0.322266,-0.613282 L 70.097656,33.035156 Z m -47.90625,0.470703 c 0.228726,0.09813 0.464703,0.18333 0.703125,0.261719 L 7.71875,48.941406 l 0,-0.964844 14.472656,-14.470703 z m 48.845703,0.0078 c 0.227249,0.09694 0.460486,0.180335 0.697266,0.257812 L 58.185547,47.314453 C 58.10854,47.079678 58.023884,46.848441 57.927734,46.623047 L 71.037109,33.513672 Z m 6.65625,0.03906 -19.724609,19.720704 c 0.183419,-0.445933 0.328462,-0.910827 0.435547,-1.390626 L 76.304688,33.988281 c 0.47904,-0.107294 0.943436,-0.252145 1.388671,-0.435547 z m -48.849609,0.0078 -21.125,21.117187 0,-0.949218 19.740234,-19.736328 c 0.477737,-0.106035 0.940509,-0.249926 1.384766,-0.431641 z m 63.4375,0.25 0,0.955078 -57.546875,57.515625 -0.949219,0 58.496094,-58.470703 z m -69.019531,0.06641 c 0.255133,0.07138 0.513236,0.131793 0.777343,0.179688 L 7.71875,50.367188 l 0,-0.955079 15.542969,-15.535156 z m 48.84375,0.002 c 0.257379,0.07152 0.518685,0.134014 0.785156,0.181641 L 58.472656,48.470703 c -0.04792,-0.26704 -0.107766,-0.529215 -0.179687,-0.787109 l 13.8125,-13.804688 z M 75.71484,34.09387 58.509762,51.291136 c 0.05181,-0.343821 0.08579,-0.692957 0.0957,-1.048828 l 16.0586,-16.052855 c 0.356097,-0.01022 0.706775,-0.04354 1.050782,-0.0957 z m -48.847656,0.0039 -19.148438,19.138672 0,-0.935547 18.121094,-18.111328 c 0.348427,-0.01018 0.690478,-0.04144 1.027344,-0.0918 z m -2.410157,0.02344 c 0.29035,0.03803 0.586066,0.05999 0.884766,0.06836 L 7.71875,51.808594 l 0,-0.955078 16.738281,-16.732422 z m 48.833985,0 c 0.29465,0.03845 0.593254,0.06045 0.896484,0.06836 L 58.605469,49.769531 c -0.008,-0.302556 -0.03187,-0.600522 -0.07031,-0.894531 L 73.291016,34.121094 Z M 92.28125,35.25 l 0,0.953125 -56.089844,56.078125 -0.958984,0 L 92.28125,35.25 Z m 0,1.449219 0,0.935547 -54.671875,54.646484 -0.939453,0 55.611328,-55.582031 z m 0,1.423828 0,0.951172 -53.224609,53.207031 -0.945313,0 54.169922,-54.158203 z m 0,1.429687 0,0.964844 -51.787109,51.763672 -0.964844,0 52.751953,-52.728516 z m 0,1.429688 0,0.964844 -50.355469,50.333984 -0.951172,0 51.306641,-51.298828 z m 0,1.449219 0,0.955078 -48.921875,48.894531 -0.949219,0 49.871094,-49.849609 z m 0,1.441406 0,0.953125 -22.082031,22.076172 c -1.378809,0.775338 -2.519426,1.918167 -3.294922,3.296875 l -22.087891,22.082031 -0.958984,0 48.423828,-48.408203 z m 0,1.445312 0,0.9375 -19.769531,19.759766 c -0.470696,0.106229 -0.927222,0.247946 -1.365235,0.427734 l 21.134766,-21.125 z m -50.240234,1.382813 c -0.186692,0.449837 -0.332535,0.919787 -0.441407,1.404297 L 23.681641,66.015625 c -0.485714,0.109641 -0.957414,0.255508 -1.408203,0.443359 L 42.041016,46.701172 Z m 50.240234,0.04492 0,0.951172 -18.121094,18.113281 c -0.3539,0.01034 -0.701015,0.04393 -1.042968,0.0957 L 92.28125,46.746094 Z m 0,1.425781 0,0.966797 -16.748047,16.740234 c -0.29422,-0.0382 -0.593722,-0.06062 -0.896484,-0.06836 L 92.28125,48.171875 Z m -50.785156,0.503906 c -0.05405,0.349417 -0.08887,0.704451 -0.09961,1.066407 L 25.324219,65.8125 c -0.360799,0.01084 -0.71612,0.04377 -1.064453,0.09766 L 41.496094,48.675781 Z m 50.785156,0.929688 0,0.966797 -15.552734,15.548828 c -0.25764,-0.07176 -0.518395,-0.131876 -0.785157,-0.179688 L 92.28125,49.605469 Z m -50.886719,0.609375 c 0.0074,0.299144 0.02927,0.593934 0.06641,0.884765 L 26.677734,65.875 C 26.386821,65.83812 26.092183,65.81572 25.792969,65.80859 L 41.394531,50.21484 Z m 50.886719,0.828125 0,0.951172 L 77.785156,66.48242 C 77.559059,66.38624 77.325358,66.303483 77.089844,66.22656 L 92.28125,51.042969 Z m -50.755859,0.480469 c 0.04714,0.263749 0.107178,0.522495 0.177734,0.777343 L 27.884766,66.117188 c -0.255383,-0.07063 -0.514983,-0.130616 -0.779297,-0.177735 L 41.525391,51.523438 Z m 50.755859,0.958984 0,0.955078 -13.537109,13.535156 C 78.540288,66.853782 78.331239,66.744752 78.117188,66.642578 L 92.28125,52.482422 Z M 41.8125,52.681641 c 0.07615,0.232574 0.158965,0.462164 0.253906,0.685547 L 28.949219,66.478516 c -0.223954,-0.09505 -0.454319,-0.175785 -0.6875,-0.251954 L 41.8125,52.681641 Z m 0.414062,1.015625 c 0.101149,0.212233 0.208606,0.420822 0.326172,0.623046 L 29.904297,66.966797 C 29.702393,66.849454 29.495082,66.741605 29.283203,66.640625 L 42.226562,53.697266 Z m 50.054688,0.230468 0,0.9375 -12.683594,12.677735 C 79.418773,67.407838 79.236244,67.277364 79.046875,67.15625 L 92.28125,53.927734 Z m -49.548828,0.689454 c 0.124661,0.195834 0.258821,0.383697 0.398437,0.568359 L 30.767578,67.542969 C 30.582975,67.403518 30.394975,67.269042 30.199219,67.144531 L 42.732422,54.617188 Z m 49.548828,0.740234 0,0.949219 -11.902344,11.898437 c -0.1616,-0.155232 -0.324752,-0.308811 -0.498047,-0.451172 L 92.28125,55.357422 Z m -48.949219,0.0957 c 0.143902,0.175753 0.296009,0.344043 0.453125,0.507813 L 31.542969,68.199219 c -0.16379,-0.157035 -0.330094,-0.311257 -0.50586,-0.455078 L 43.332031,55.453125 Z m 0.695313,0.75 c 0.162379,0.15638 0.327726,0.309763 0.501953,0.453125 L 32.238281,68.939453 c -0.143195,-0.173799 -0.296968,-0.338008 -0.453125,-0.5 L 44.027344,56.203125 Z m 48.253906,0.580078 0,0.964844 -11.205078,11.201172 c -0.145005,-0.176513 -0.300633,-0.34344 -0.458984,-0.507813 l 11.664062,-11.6582 z m -47.472656,0.08203 c 0.182248,0.138026 0.367388,0.271079 0.560547,0.394532 L 32.84375,69.783203 c -0.123714,-0.193456 -0.256198,-0.379995 -0.394531,-0.5625 L 44.808594,56.865234 Z m 0.865234,0.578125 c 0.199891,0.116429 0.405541,0.223835 0.615234,0.324219 l -12.9375,12.929688 C 33.25121,70.488021 33.143678,70.283453 33.027344,70.083984 L 45.673828,57.443359 Z m 0.947266,0.484375 c 0.225145,0.0961 0.456895,0.178863 0.691406,0.25586 L 33.767578,71.724609 c -0.07712,-0.234705 -0.159605,-0.466086 -0.255859,-0.691406 L 46.621094,57.927734 Z m 6.65039,0.04102 -19.71289,19.710938 c 0.183036,-0.446538 0.327062,-0.91218 0.433594,-1.392579 L 51.880859,58.404297 c 0.479851,-0.106985 0.944633,-0.252215 1.390625,-0.435547 z m 39.009766,0.25 0,0.976562 -10.601562,10.59961 c -0.12598,-0.197659 -0.261127,-0.387961 -0.402344,-0.574219 L 92.28125,58.21875 Z m -44.601562,0.07422 c 0.257841,0.07203 0.520116,0.131649 0.787109,0.179687 L 34.056641,72.875 c -0.0481,-0.266241 -0.107731,-0.528027 -0.179688,-0.785156 L 47.679688,58.292969 Z m 3.605468,0.216797 -17.1875,17.177734 c 0.05048,-0.340286 0.08232,-0.687022 0.0918,-1.039062 l 16.048825,-16.04297 c 0.35524,-0.0097 0.703629,-0.04422 1.046875,-0.0957 z M 48.875,58.535156 c 0.294009,0.03844 0.591975,0.06229 0.894531,0.07031 L 34.189453,74.181641 c -0.0081,-0.302537 -0.02986,-0.600546 -0.06836,-0.894532 L 48.875,58.535156 Z m 43.40625,1.128906 0,0.949219 -10.097656,10.091797 C 82.082145,70.49305 81.973315,70.28599 81.855469,70.083984 L 92.28125,59.664062 Z m 0,1.441407 0,0.957031 -9.677734,9.675781 c -0.07754,-0.237379 -0.160715,-0.471411 -0.257813,-0.699219 l 9.935547,-9.933593 z m 0,1.443359 0,0.9375 -9.394531,9.388672 c -0.04665,-0.258235 -0.104714,-0.512038 -0.173828,-0.761719 l 9.568359,-9.564453 z m 0,1.431641 0,0.949219 -9.261719,9.257812 c -0.0078,-0.297853 -0.02915,-0.59127 -0.06641,-0.880859 l 9.328125,-9.326172 z m 0,1.423828 0,0.964844 -9.357422,9.353515 c 0.05295,-0.347083 0.08547,-0.701143 0.0957,-1.060547 l 9.261719,-9.257812 z m 0,1.4375 0,0.964844 -9.904297,9.902343 c 0.186591,-0.450493 0.332844,-0.921043 0.441406,-1.40625 l 9.462891,-9.460937 z m 0,1.431641 0,0.949218 -23.070312,23.058594 -0.949219,0 10.347656,-10.341797 c 1.393541,-0.778712 2.548729,-1.933065 3.328125,-3.326172 L 92.28125,68.273438 Z m 0,1.443359 0,0.957031 -21.613281,21.607422 -0.958985,0 22.572266,-22.564453 z m -74.650391,1.382812 c -0.188178,0.450948 -0.335418,0.92227 -0.445312,1.408203 L 7.859375,81.830078 C 7.817934,81.54303 7.784913,81.254184 7.763672,80.960938 l 9.867187,-9.861329 z m 48.814453,0.04297 c -0.180314,0.438663 -0.323172,0.895713 -0.429687,1.367188 l -19.78125,19.771484 -0.939453,0 21.15039,-21.138672 z m 25.835938,0.01367 0,0.939453 -20.195312,20.185547 -0.939454,0 21.134766,-21.125 z m 0,1.4375 0,0.947266 -18.748047,18.740234 -0.945312,0 19.693359,-19.6875 z M 17.080078,73.08789 c -0.05403,0.348757 -0.08678,0.703194 -0.09766,1.064453 L 8.0976562,83.037109 C 8.0324698,82.775546 7.9719263,82.512158 7.9238281,82.244141 l 9.1562499,-9.15625 z m 48.826172,0.02734 c -0.05185,0.341935 -0.08529,0.689083 -0.0957,1.042969 l -18.128906,18.123047 -0.945313,0 19.169922,-19.166016 z m 26.375,0.898438 0,0.964844 -17.310547,17.302734 -0.966797,0 18.277344,-18.267578 z m -75.302734,0.605469 c 0.007,0.298619 0.02778,0.594407 0.06445,0.884765 l -8.6230471,8.619141 c -0.08309,-0.236713 -0.159804,-0.47555 -0.2285157,-0.71875 l 8.7871098,-8.785156 z m 48.830078,0.01367 c 0.0076,0.303373 0.03016,0.603634 0.06836,0.898438 l -16.757812,16.75 -0.964844,0 17.654297,-17.648438 z m 26.472656,0.820313 0,0.957031 -15.878906,15.871094 -0.951172,0 L 92.28125,75.45312 Z m -75.171875,0.480469 c 0.04714,0.264765 0.107004,0.523491 0.177734,0.779297 L 8.8378906,85.162109 C 8.7360576,84.940076 8.6414264,84.715349 8.5527344,84.486328 l 8.5566406,-8.552734 z m 48.832031,0.0098 c 0.0477,0.266134 0.108152,0.526147 0.179688,0.783203 l -15.556641,15.554688 -0.964844,0 16.341797,-16.337891 z m 26.339844,0.951172 0,0.947266 -14.445312,14.439453 -0.947266,0 15.392578,-15.386719 z m -74.884766,0.191407 c 0.07602,0.233081 0.155121,0.465581 0.25,0.689453 L 9.3164062,86.103516 C 9.2014109,85.901239 9.0957563,85.693708 8.9921875,85.484375 l 8.4042965,-8.398437 z m 48.830078,0 c 0.07675,0.235322 0.157937,0.469383 0.253907,0.695312 l -14.507813,14.5 -0.949218,0 15.203124,-15.195312 z m -48.417968,1.02539 c 0.100737,0.211485 0.209132,0.417589 0.326172,0.619141 L 9.8691406,86.994141 C 9.7397454,86.806193 9.6228354,86.609466 9.5039062,86.414062 l 8.3046878,-8.302734 z m 48.832031,0.0039 c 0.102245,0.214368 0.213039,0.422808 0.332031,0.626954 l -13.542968,13.539062 -0.958985,0 14.169922,-14.166016 z m 25.640625,0.22461 0,0.957031 -12.988281,12.984375 -0.958985,0 13.947266,-13.941406 z m -73.966797,0.685547 c 0.124468,0.195833 0.257067,0.385633 0.396485,0.570312 l -8.226563,8.220703 c -0.145913,-0.177867 -0.278229,-0.366639 -0.414063,-0.552734 l 8.244141,-8.238281 z m 48.839844,0.01758 c 0.121309,0.189885 0.251321,0.37338 0.386719,0.552734 l -12.69336,12.685547 -0.939453,0 13.246094,-13.238281 z m 25.126953,0.734375 0,0.285156 c 0,0.232195 -0.02247,0.458562 -0.03516,0.6875 l -11.5,11.498047 c -0.227628,0.01254 -0.452748,0.0332 -0.683594,0.0332 l -0.291016,0 12.509766,-12.503906 z m -73.367188,0.08984 c 0.142934,0.17468 0.297139,0.339099 0.453126,0.501953 l -8.203126,8.199218 c -0.156622,-0.161548 -0.305576,-0.32998 -0.453124,-0.5 l 8.203124,-8.201171 z m 48.839844,0.01367 c 0.141777,0.172584 0.294675,0.335108 0.449219,0.496094 l -11.908203,11.904297 -0.945313,0 12.404297,-12.400391 z m -48.146484,0.732422 c 0.160921,0.155224 0.323508,0.308742 0.496094,0.451172 l -8.201172,8.199219 c -0.16885,-0.147475 -0.33762,-0.294718 -0.498047,-0.451172 l 8.203125,-8.199219 z m 48.832031,0 c 0.164247,0.158379 0.329475,0.315892 0.505859,0.460938 l -11.21289,11.207031 -0.964844,0 11.671875,-11.667969 z m -48.050781,0.664063 c 0.18236,0.138314 0.369197,0.270817 0.5625,0.394531 l -8.238281,8.238281 C 12.528621,89.774948 12.340218,89.645112 12.164062,89.5 l 8.22461,-8.222656 z m 48.830078,0 c 0.186204,0.141229 0.376615,0.276345 0.574219,0.402344 l -10.603516,10.601562 -0.976562,0 11.005859,-11.003906 z m 23.001953,0 c -0.03691,0.376444 -0.09593,0.745849 -0.166015,1.111328 l -9.669922,9.666016 c -0.365507,0.06997 -0.734862,0.129217 -1.111328,0.166015 L 92.220703,81.277344 Z M 21.25,81.853516 c 0.200258,0.116998 0.405108,0.225291 0.615234,0.326172 l -8.304687,8.300781 C 13.366348,90.361621 13.171169,90.244437 12.984375,90.115234 L 21.25,81.853516 Z m 48.830078,0.002 c 0.201668,0.117754 0.409427,0.224763 0.621094,0.326172 l -10.103516,10.099609 -0.949218,0 10.43164,-10.425781 z m -47.878906,0.486328 c 0.224828,0.0961 0.457228,0.17881 0.691406,0.255859 l -8.402344,8.398438 c -0.208858,-0.103932 -0.415389,-0.210852 -0.617187,-0.326172 l 8.328125,-8.328125 z m 48.835937,0.002 c 0.227809,0.09718 0.461833,0.180193 0.699219,0.257812 l -9.68164,9.679688 -0.958985,0 9.941406,-9.9375 z m 6.669922,0.03516 -9.904297,9.902344 -0.964843,0 9.464843,-9.462891 c 0.484381,-0.108377 0.954506,-0.253306 1.404297,-0.439453 z M 28.847656,82.388672 19,92.234375 c -0.290772,-0.02198 -0.576689,-0.05776 -0.861328,-0.09961 l 9.314453,-9.310547 c 0.481313,-0.106464 0.947179,-0.252301 1.394531,-0.435547 z m -5.589844,0.316406 c 0.257061,0.07206 0.517028,0.133432 0.783204,0.181641 L 15.486328,91.4375 c -0.229856,-0.08965 -0.454953,-0.186166 -0.677734,-0.289062 l 8.449218,-8.44336 z m 48.851563,0.0059 c 0.249779,0.06928 0.503369,0.12899 0.761719,0.175781 l -9.398438,9.394531 -0.939453,0 9.576172,-9.570312 z m 3.609375,0.21289 -9.361328,9.357422 -0.966797,0 9.267578,-9.261719 c 0.35943,-0.01007 0.713427,-0.04291 1.060547,-0.0957 z m -48.867188,0.0059 -9.144531,9.138671 c -0.260756,-0.04788 -0.51688,-0.107801 -0.771484,-0.171875 l 8.878906,-8.876953 c 0.351803,-0.0092 0.697028,-0.03964 1.037109,-0.08984 z m -2.396484,0.02148 c 0.294139,0.03859 0.593781,0.06021 0.896484,0.06836 l -8.783203,8.783203 c -0.247446,-0.07052 -0.489775,-0.150916 -0.730468,-0.236328 l 8.617187,-8.615234 z m 48.84961,0.002 c 0.289574,0.03732 0.583016,0.05858 0.880859,0.06641 l -9.265625,9.261719 -0.945313,0 9.330079,-9.328125 z m 18.607421,0.04883 c -0.117612,0.478027 -0.261779,0.944657 -0.433593,1.398438 l -7.080078,7.080078 c -0.454939,0.172146 -0.92305,0.315927 -1.402344,0.433593 l 8.916015,-8.912109 z m -0.78125,2.226563 c -0.428263,0.919051 -0.958849,1.780038 -1.591797,2.55664 l -1.755859,1.75586 c -0.776707,0.632744 -1.637528,1.163745 -2.556641,1.591796 l 5.904297,-5.904296 z"
     id="path6376"
     inkscape:connector-curvature="0" />
</svg>
