<?xml version="1.0" encoding="UTF-8" standalone="no"?>
<svg
   xmlns:dc="http://purl.org/dc/elements/1.1/"
   xmlns:cc="http://creativecommons.org/ns#"
   xmlns:rdf="http://www.w3.org/1999/02/22-rdf-syntax-ns#"
   xmlns:svg="http://www.w3.org/2000/svg"
   xmlns="http://www.w3.org/2000/svg"
   xmlns:sodipodi="http://sodipodi.sourceforge.net/DTD/sodipodi-0.dtd"
   xmlns:inkscape="http://www.inkscape.org/namespaces/inkscape"
   viewBox="0 0 100 100"
   x="0px"
   y="0px"
   id="svg6928"
   version="1.1"
   inkscape:version="0.91 r13725"
   sodipodi:docname="6.svg"
   width="100"
   height="100">
  <metadata
     id="metadata6940">
    <rdf:RDF>
      <cc:Work
         rdf:about="">
        <dc:format>image/svg+xml</dc:format>
        <dc:type
           rdf:resource="http://purl.org/dc/dcmitype/StillImage" />
        <dc:title></dc:title>
      </cc:Work>
    </rdf:RDF>
  </metadata>
  <defs
     id="defs6938" />
  <sodipodi:namedview
     pagecolor="#ffffff"
     bordercolor="#666666"
     borderopacity="1"
     objecttolerance="10"
     gridtolerance="10"
     guidetolerance="10"
     inkscape:pageopacity="0"
     inkscape:pageshadow="2"
     inkscape:window-width="1680"
     inkscape:window-height="987"
     id="namedview6936"
     showgrid="false"
     inkscape:zoom="1.888"
     inkscape:cx="50"
     inkscape:cy="62.5"
     inkscape:window-x="1672"
     inkscape:window-y="-8"
     inkscape:window-maximized="1"
     inkscape:current-layer="svg6928" />
  <path
     d="M 19.9375,5 C 11.705017,5 5,11.705022 5,19.9375 l 0,60.125 C 5,88.294978 11.705017,95 19.9375,95 l 60.125,0 C 88.294974,95 95,88.294976 95,80.0625 l 0,-60.125 C 95,11.705024 88.294974,5 80.0625,5 l -60.125,0 z m 0,2.71875 0.279297,0 -12.498047,12.492188 0,-0.273438 c 0,-0.241406 0.021454,-0.476965 0.035156,-0.714844 L 19.226562,7.753906 c 0.236603,-0.01355 0.470847,-0.03516 0.710938,-0.03516 z m 0.761719,0 0.964843,0 -13.945312,13.9375 0,-0.960938 L 20.699219,7.71875 Z m 1.419922,0 0.974609,0 -15.375,15.367188 0,-0.96875 L 22.119141,7.71875 Z m 1.458984,0 0.960937,0 -16.820312,16.8125 0,-0.958984 L 23.578125,7.71875 Z m 1.4375,0 0.951172,0 -18.248047,18.244141 0,-0.953125 L 25.015625,7.71875 Z m 1.457031,0 0.933594,0 -19.6875,19.677734 0,-0.933593 L 26.472656,7.71875 Z m 1.414063,0 0.955078,0 -21.123047,21.115234 0,-0.953125 L 27.886719,7.71875 Z m 1.4375,0 0.964843,0 -22.570312,22.558594 0,-0.960938 L 29.324219,7.71875 Z m 1.419922,0 0.966797,0 -10.38086,10.378906 c -1.345722,0.766656 -2.463405,1.885009 -3.230469,3.230469 L 7.71875,31.707031 l 0,-0.966797 L 30.744141,7.71875 Z m 1.449218,0 0.958985,0 -9.472656,9.466797 c -0.482414,0.109009 -0.950466,0.255218 -1.398438,0.441406 L 32.193359,7.71875 Z m 1.435547,0 0.951172,0 -9.265625,9.263672 c -0.355364,0.01108 -0.705568,0.04285 -1.048828,0.0957 L 33.628906,7.71875 Z m 1.457032,0 0.933593,0 -9.332031,9.326172 c -0.285087,-0.03647 -0.574094,-0.05655 -0.867188,-0.06445 L 35.085938,7.71875 Z m 1.414062,0 0.955078,0 -9.572266,9.568359 c -0.254188,-0.07024 -0.512354,-0.130782 -0.77539,-0.177734 L 36.5,7.71875 Z m 1.4375,0 0.964844,0 -9.941406,9.935547 c -0.229134,-0.09766 -0.464311,-0.181892 -0.703126,-0.259766 L 37.9375,7.71875 Z m 1.419922,0 0.978516,0 -10.423829,10.421875 c -0.20804,-0.121192 -0.421982,-0.232144 -0.640625,-0.335937 L 39.357422,7.71875 Z m 1.460937,0 0.958985,0 -11.003906,10.998047 C 30.590375,18.578275 30.403041,18.446088 30.208984,18.322266 L 40.818359,7.71875 Z m 1.435547,0 0.951172,0 -11.658203,11.654297 c -0.162018,-0.155534 -0.326239,-0.308572 -0.5,-0.451172 L 42.253906,7.71875 Z m 1.457032,0 0.933593,0 -12.402343,12.396484 C 32.102045,19.944859 31.951426,19.78406 31.798828,19.625 L 43.710938,7.71875 Z m 1.414062,0 0.955078,0 -13.238281,13.232422 C 32.718575,20.758639 32.586926,20.572305 32.449219,20.390625 L 45.125,7.71875 Z m 1.4375,0 0.964844,0 -14.169922,14.164062 C 33.254473,21.667138 33.143338,21.457271 33.023438,21.251953 L 46.5625,7.71875 Z m 1.419922,0 0.966797,0 -15.181641,15.177734 C 33.689138,22.65773 33.606046,22.420441 33.507812,22.191406 L 47.982422,7.71875 Z m 1.449219,0 0.958984,0 -16.333984,16.324219 c -0.04778,-0.264153 -0.108414,-0.52216 -0.179688,-0.777344 L 49.431641,7.71875 Z m 1.435547,0 0.951171,0 -17.628906,17.625 c -0.0083,-0.298709 -0.0304,-0.594403 -0.06836,-0.884766 L 50.867188,7.71875 Z m 1.457031,0 0.933593,0 -19.162109,19.152344 c 0.05044,-0.336291 0.08336,-0.677563 0.09375,-1.025391 L 52.324219,7.71875 Z m 1.414062,0 0.955078,0 -21.132812,21.126953 c 0.181803,-0.444199 0.325506,-0.907079 0.431641,-1.384765 L 53.738281,7.71875 Z m 1.4375,0 0.964844,0 -34.810547,34.794922 c -1.347279,0.767543 -2.46724,1.884881 -3.234375,3.232422 L 7.71875,56.119141 l 0,-0.962891 22.046875,-22.039062 c 1.405318,-0.781596 2.567323,-1.942776 3.349609,-3.347657 L 55.175781,7.71875 Z m 1.419922,0 0.974609,0 -33.898437,33.884766 c -0.487124,0.110564 -0.960208,0.258033 -1.412109,0.447265 L 56.595703,7.71875 Z m 1.460938,0 0.958984,0 -33.695313,33.677734 c -0.357388,0.0109 -0.709529,0.04451 -1.054687,0.09766 L 58.056641,7.71875 Z m 1.435547,0 0.951171,0 -33.75,33.744141 c -0.291503,-0.0375 -0.586846,-0.06074 -0.886718,-0.06836 L 59.492188,7.71875 Z m 1.457031,0 0.933593,0 -34,33.984375 c -0.249715,-0.06906 -0.501498,-0.129193 -0.759765,-0.175781 L 60.949219,7.71875 Z m 1.414062,0 0.955078,0 -34.361328,34.349609 C 28.731162,41.972229 28.496991,41.889417 28.261719,41.8125 L 62.363281,7.71875 Z m 1.4375,0 0.964844,0 -34.853516,34.837891 c -0.205538,-0.119735 -0.41692,-0.229274 -0.632812,-0.332032 L 63.800781,7.71875 Z m 1.419922,0 0.966797,0 -35.417969,35.412109 C 30.58496,42.99134 30.396902,42.857001 30.201172,42.732422 L 65.220703,7.71875 Z m 1.449219,0 0.958984,0 -36.085937,36.066406 C 31.379983,43.628855 31.215866,43.475249 31.041016,43.332031 L 66.669922,7.71875 Z m 1.435547,0 0.951172,0 -36.816407,36.808594 C 32.097037,44.353429 31.943283,44.187492 31.787109,44.025391 L 68.105469,7.71875 Z m 1.457031,0 0.933594,0 -37.658203,37.640625 C 32.71689,45.170652 32.588058,44.98883 32.453125,44.810547 L 69.5625,7.71875 Z m 1.414062,0 0.955079,0 -38.580079,38.566406 C 33.250054,46.073391 33.141309,45.865815 33.023438,45.664062 L 70.976562,7.71875 Z m 1.4375,0 0.964844,0 -39.611328,39.59375 c -0.07837,-0.238672 -0.161622,-0.474163 -0.259766,-0.703125 L 72.414062,7.71875 Z m 1.419922,0 0.978516,0 -40.753906,40.748047 C 34.010067,48.197088 33.948002,47.93224 33.875,47.671875 L 73.833984,7.71875 Z m 1.460938,0 0.958984,0 -42.064453,42.041016 C 34.181153,49.46057 34.159113,49.165824 34.121093,48.875 L 75.294921,7.71875 Z m 1.435547,0 0.951172,0 -43.587891,43.578125 c 0.05215,-0.344478 0.08561,-0.694188 0.0957,-1.050781 L 76.730469,7.71875 Z m 1.457031,0 0.933594,0 -45.560547,45.541016 c 0.179034,-0.437434 0.320074,-0.89332 0.425781,-1.363282 L 78.1875,7.71875 Z m 1.414062,0 0.460938,0 c 0.158963,0 0.313241,0.01747 0.470703,0.02344 L 70.197266,18.074219 c -1.374815,0.773659 -2.514094,1.913131 -3.289063,3.287109 l -45.582031,45.56836 c -1.343933,0.766538 -2.460224,1.882501 -3.226563,3.226562 L 7.7402344,80.511719 C 7.7347965,80.361391 7.71875,80.214193 7.71875,80.0625 l 0,-0.474609 22.080078,-22.076172 c 1.37983,-0.775559 2.523048,-1.917187 3.298828,-3.296875 L 79.601562,7.71875 Z m 1.392579,0.04687 c 0.291344,0.02189 0.578088,0.05583 0.863281,0.09766 l -9.31836,9.314453 c -0.48321,0.107362 -0.951489,0.252753 -1.40039,0.4375 L 80.994141,7.765624 Z M 18.71875,7.779297 7.7792969,18.714844 c 0.036701,-0.371871 0.096931,-0.736492 0.1660156,-1.097656 L 17.623047,7.943359 c 0.360491,-0.06877 0.724556,-0.12755 1.095703,-0.164062 z m 63.533203,0.144531 c 0.268104,0.04829 0.531332,0.110392 0.792969,0.175781 l -8.882813,8.88086 c -0.361263,0.01047 -0.715659,0.04404 -1.064453,0.09766 L 82.251953,7.923828 Z M 16.960938,8.097656 8.0976562,16.958984 c 0.1175554,-0.47107 0.2594342,-0.931516 0.4296876,-1.378906 L 15.582031,8.527344 c 0.447432,-0.170192 0.907798,-0.312201 1.378907,-0.429688 z m 66.466796,0.09961 c 0.246093,0.07006 0.487143,0.149593 0.726563,0.234375 l -8.621094,8.617188 c -0.292952,-0.03803 -0.591155,-0.06052 -0.892578,-0.06836 l 8.787109,-8.783204 z m 1.076172,0.361328 c 0.225835,0.08786 0.446994,0.182561 0.666016,0.283204 l -8.449219,8.447265 C 76.46677,17.218593 76.21005,17.158548 75.947266,17.111328 l 8.55664,-8.552734 z m -69.746094,0.31836 -5.8789058,5.875 c 0.4309537,-0.920495 0.9632142,-1.78352 1.5996098,-2.560547 l 1.716796,-1.714844 c 0.777712,-0.636499 1.641211,-1.16885 2.5625,-1.599609 z m 70.75586,0.128906 c 0.206208,0.102706 0.410051,0.208455 0.609375,0.322266 l -8.330078,8.328125 c -0.22226,-0.09482 -0.452205,-0.175746 -0.683594,-0.251953 L 85.513672,9.00586 Z m 0.910156,0.503907 c 0.196844,0.120057 0.394725,0.238457 0.583984,0.36914 l -8.265624,8.263672 C 78.539296,18.024317 78.332133,17.914222 78.119141,17.8125 l 8.304687,-8.302734 z m 0.859375,0.576172 c 0.185804,0.136205 0.375173,0.267792 0.552735,0.414062 l -8.226563,8.220703 C 79.425834,18.581586 79.237583,18.44855 79.042969,18.32422 l 8.240234,-8.238281 z m 0.791016,0.628906 c 0.173408,0.150662 0.345186,0.302787 0.509765,0.46289 l -8.201172,8.199219 C 80.217936,19.21842 80.050104,19.063087 79.873047,18.917969 l 8.201172,-8.203125 z m 0.751953,0.705078 c 0.158747,0.163332 0.309529,0.333841 0.458984,0.505859 L 81.080078,20.125 C 80.936066,19.949405 80.782213,19.782749 80.625,19.619141 l 8.201172,-8.199219 z m 0.683594,0.757812 c 0.143387,0.17455 0.272572,0.360479 0.40625,0.542969 l -8.240235,8.238281 c -0.122837,-0.192359 -0.253337,-0.378996 -0.390625,-0.560546 l 8.22461,-8.220704 z m 0.623046,0.832032 c 0.127698,0.185621 0.243835,0.379375 0.361329,0.572265 l -8.306641,8.30078 c -0.09951,-0.208476 -0.204947,-0.412514 -0.320312,-0.611328 l 8.265624,-8.261718 z m 0.541016,0.871093 c 0.116903,0.204908 0.224915,0.414782 0.330078,0.626953 l -8.402344,8.398438 c -0.07723,-0.23605 -0.159283,-0.470687 -0.255859,-0.697266 l 8.328125,-8.328125 z m 0.486328,0.953125 c 0.102265,0.222763 0.198075,0.447934 0.28711,0.677735 l -8.556641,8.552734 c -0.04756,-0.26679 -0.108177,-0.527472 -0.179687,-0.785156 l 8.449218,-8.445313 z m 0.408203,1.013672 c 0.08501,0.240185 0.166137,0.481619 0.236329,0.728516 l -8.785157,8.783203 c -0.0079,-0.302742 -0.03003,-0.602291 -0.06836,-0.896484 l 8.617187,-8.615235 z m 0.333985,1.111328 c 0.06463,0.258968 0.123999,0.519856 0.171875,0.785157 l -9.150391,9.146484 c 0.05255,-0.345032 0.08535,-0.695525 0.0957,-1.052734 l 8.882813,-8.878907 z m 0.236328,1.201172 c 0.04095,0.282015 0.07425,0.565502 0.0957,0.853516 l -9.851563,9.851562 c 0.183205,-0.444512 0.326251,-0.90849 0.433594,-1.386718 l 9.322266,-9.31836 z m 0.121094,1.332032 c 0.0053,0.149036 0.02148,0.294935 0.02148,0.445312 l 0,0.466797 -22.119141,22.107422 c -1.348803,0.767854 -2.468728,1.887361 -3.236328,3.236328 L 20.37109,92.28125 l -0.433594,0 c -0.162254,0 -0.319781,-0.01722 -0.480469,-0.02344 l 10.32227,-10.318357 c 1.392845,-0.778012 2.546563,-1.930435 3.326172,-3.322265 L 78.675781,33.068359 C 80.01741,32.30258 81.132603,31.18925 81.898438,29.847656 L 92.259766,19.492188 Z m 0.02148,1.396484 0,0.953125 -19.765625,19.757812 c -0.477606,0.107565 -0.940833,0.252306 -1.384766,0.435547 L 92.28125,20.888672 Z m -74.654297,1.388672 c -0.1863,0.447703 -0.330252,0.916299 -0.439453,1.398437 l -9.46875,9.462891 0,-0.957031 9.908203,-9.904297 z m 48.820313,0.02734 c -0.184972,0.448775 -0.329888,0.917283 -0.4375,1.40039 l -42.328121,42.31055 c -0.485714,0.109641 -0.957414,0.255508 -1.408203,0.443359 L 66.447266,22.304688 Z m 25.833984,0.01758 0,0.964843 -18.117188,18.109375 c -0.360594,0.01037 -0.71432,0.04429 -1.0625,0.09766 L 92.28125,22.322266 Z m 0,1.423828 0,0.978515 -16.742188,16.740235 c -0.29799,-0.03889 -0.601447,-0.06268 -0.908203,-0.07031 L 92.28125,23.746094 Z M 17.078121,24.26367 c -0.05293,0.343242 -0.08455,0.693477 -0.0957,1.048828 l -9.263672,9.261719 0,-0.953125 9.359375,-9.357422 z m 48.830078,0.002 c -0.05363,0.348326 -0.08706,0.703683 -0.09766,1.064453 L 25.324219,65.8125 c -0.360799,0.01084 -0.71612,0.04377 -1.064453,0.09766 L 65.908203,24.265625 Z m 26.373047,0.935547 0,0.957031 -15.554688,15.546875 c -0.255791,-0.07118 -0.514514,-0.130155 -0.779296,-0.177734 L 92.28125,25.201172 Z m -26.470703,0.607422 c 0.0077,0.301172 0.02855,0.597901 0.06641,0.890625 L 26.677734,65.875 c -0.290913,-0.03688 -0.585551,-0.05928 -0.884765,-0.06641 l 40.017578,-40 z m -48.830078,0.0078 c 0.0078,0.293115 0.02811,0.582073 0.06445,0.867188 l -9.326172,9.322265 0,-0.933593 9.261719,-9.25586 z m 75.300781,0.822266 0,0.953125 -14.484375,14.482422 C 77.570088,41.977372 77.335893,41.89198 77.099605,41.814486 L 92.28125,26.638672 Z m -75.171875,0.466797 c 0.0469,0.26306 0.107546,0.521175 0.177734,0.77539 l -9.568359,9.564453 0,-0.951171 9.390625,-9.388672 z m 48.832031,0.0098 c 0.04709,0.262376 0.107471,0.519881 0.177735,0.773438 L 27.884766,66.117188 c -0.255383,-0.07063 -0.514983,-0.130616 -0.779297,-0.177735 L 65.941406,27.115234 Z m 26.339844,0.97461 0,0.935547 -13.539062,13.533203 C 78.542551,42.44223 78.338328,42.334733 78.128906,42.234375 L 92.28125,28.089844 Z m -74.886719,0.164062 c 0.0777,0.238628 0.160357,0.474153 0.257813,0.703125 l -9.933594,9.929688 0,-0.960938 9.675781,-9.671875 z m 48.837891,0.02148 c 0.0762,0.231908 0.157065,0.460842 0.251953,0.683593 L 28.949219,66.478516 c -0.223954,-0.09505 -0.454319,-0.175785 -0.6875,-0.251954 L 66.232422,28.275391 Z m -48.427734,0.99414 c 0.103761,0.21869 0.214771,0.432537 0.335937,0.640625 L 7.71875,40.330078 l 0,-0.976562 10.085938,-10.083985 z m 48.83789,0.01758 c 0.101475,0.21264 0.210166,0.420467 0.328125,0.623047 L 29.904297,66.966797 C 29.702393,66.849454 29.495082,66.741605 29.283203,66.640625 L 66.642578,29.287109 Z m 25.638672,0.22461 0,0.951172 -12.675781,12.671875 C 79.42415,42.997473 79.238992,42.865059 79.046875,42.742188 L 92.28125,29.511719 Z m -73.960938,0.695312 c 0.123473,0.193643 0.256424,0.379796 0.394532,0.5625 l -10.99609,10.99017 0,-0.957032 10.601562,-10.595703 z m 48.832032,0.002 c 0.124594,0.195268 0.257009,0.384227 0.396484,0.56836 L 30.767578,67.542969 C 30.582975,67.403518 30.394975,67.269042 30.199219,67.144531 L 67.152344,30.208984 Z m 25.128906,0.734375 0,0.964844 -11.894531,11.888672 c -0.163991,-0.158037 -0.329782,-0.3125 -0.505856,-0.457143 L 92.28125,30.943359 Z m -24.535156,0.09766 c 0.144751,0.176723 0.300872,0.343214 0.458984,0.507812 L 31.542969,68.199219 c -0.16379,-0.157035 -0.330094,-0.311257 -0.50586,-0.455078 L 67.746094,31.041016 Z m -48.826172,0.0039 c 0.143123,0.174511 0.296961,0.339279 0.453125,0.501953 L 7.71875,43.197266 l 0,-0.955078 11.201172,-11.197266 z m 49.527344,0.746094 c 0.163482,0.15724 0.328439,0.312978 0.503906,0.457031 L 32.238281,68.939453 c -0.143195,-0.173799 -0.296968,-0.338008 -0.453125,-0.5 l 36.66211,-36.648437 z m -48.826172,0.0039 c 0.159258,0.152983 0.319613,0.304826 0.490234,0.445312 L 7.71875,44.626953 l 0,-0.933594 11.902344,-11.898437 z m 72.660156,0.574219 0,0.966797 -11.203125,11.201171 c -0.144702,-0.176368 -0.300968,-0.343745 -0.45898,-0.507915 L 92.28125,32.369141 Z m -71.890625,0.08008 c 0.18097,0.137169 0.366853,0.267826 0.558594,0.390625 L 7.71875,46.066406 l 0,-0.949218 12.671875,-12.667969 z m 48.835937,0.0039 c 0.181909,0.137648 0.367781,0.269442 0.560547,0.392578 l -36.943359,36.9375 c -0.123714,-0.193456 -0.256198,-0.379995 -0.394531,-0.5625 L 69.226562,32.453125 Z m -47.978515,0.568359 c 0.205252,0.120002 0.415244,0.230929 0.630859,0.333985 L 7.71875,47.509766 l 0,-0.962891 13.529297,-13.525391 z m 48.849609,0.01367 c 0.198664,0.115378 0.403007,0.220768 0.611328,0.320313 l -37.357418,37.3417 C 33.25121,70.488021 33.143678,70.283453 33.027344,70.083984 L 70.097656,33.035156 Z m -47.90625,0.470703 c 0.228726,0.09813 0.464703,0.18333 0.703125,0.261719 L 7.71875,48.941406 l 0,-0.964844 14.472656,-14.470703 z m 48.845703,0.0078 c 0.227249,0.09694 0.460486,0.180335 0.697266,0.257812 L 33.767578,71.724609 c -0.07712,-0.234705 -0.159605,-0.466086 -0.255859,-0.691406 l 37.52539,-37.519531 z m 6.65625,0.03906 L 33.55859,77.67977 c 0.183036,-0.446538 0.327062,-0.91218 0.433594,-1.392579 l 42.3125,-42.298828 c 0.47904,-0.107294 0.943436,-0.252145 1.388671,-0.435547 z m -48.849609,0.0078 -21.125,21.117187 0,-0.949218 19.740234,-19.736328 c 0.477737,-0.106035 0.940509,-0.249926 1.384766,-0.431641 z m 63.4375,0.25 0,0.955078 -10.607422,10.601563 C 81.550305,45.174052 81.417392,44.988861 81.279297,44.806641 L 92.28125,33.810547 Z m -69.019531,0.06641 c 0.255133,0.07138 0.513236,0.131793 0.777343,0.179688 L 7.71875,50.367188 l 0,-0.955079 15.542969,-15.535156 z m 48.84375,0.002 c 0.257379,0.07152 0.518685,0.134014 0.785156,0.181641 L 34.056641,72.875 c -0.0481,-0.266241 -0.107731,-0.528027 -0.179688,-0.785156 L 72.105469,33.878906 Z M 75.714844,34.09375 34.097656,75.6875 c 0.05048,-0.340286 0.08232,-0.687022 0.0918,-1.039062 L 74.664062,34.189453 c 0.356097,-0.01022 0.706775,-0.04354 1.050782,-0.0957 z m -48.847656,0.0039 -19.148438,19.138672 0,-0.935547 18.121094,-18.111328 c 0.348427,-0.01018 0.690478,-0.04144 1.027344,-0.0918 z m -2.410157,0.02344 c 0.29035,0.03803 0.586066,0.05999 0.884766,0.06836 L 7.71875,51.808594 l 0,-0.955078 16.738281,-16.732422 z m 48.833985,0 c 0.29465,0.03845 0.593254,0.06045 0.896484,0.06836 L 34.189453,74.181641 c -0.0081,-0.302537 -0.02986,-0.600546 -0.06836,-0.894532 L 73.291016,34.121094 Z M 92.28125,35.25 l 0,0.953125 -10.095703,10.091797 c -0.101749,-0.212934 -0.209844,-0.422165 -0.328125,-0.625 L 92.28125,35.25 Z m 0,1.449219 0,0.935547 -9.681641,9.677734 c -0.07612,-0.231901 -0.157146,-0.460844 -0.251953,-0.683594 l 9.933594,-9.929687 z m 0,1.423828 0,0.951172 -9.392578,9.390625 c -0.04726,-0.262305 -0.107312,-0.519959 -0.177734,-0.773438 l 9.570312,-9.568359 z m 0,1.429687 0,0.964844 -9.261719,9.25586 c -0.0079,-0.302571 -0.03005,-0.600502 -0.06836,-0.894532 l 9.330078,-9.326172 z m 0,1.429688 0,0.964844 -9.357422,9.351562 c 0.05252,-0.346353 0.08571,-0.698042 0.0957,-1.05664 l 9.261719,-9.259766 z m 0,1.449219 0,0.955078 -9.898438,9.894531 c 0.183827,-0.445751 0.328023,-0.910964 0.435547,-1.390625 l 9.462891,-9.458984 z m 0,1.441406 0,0.953125 -22.082031,22.076172 c -1.378809,0.775338 -2.519426,1.918167 -3.294922,3.296875 l -22.087891,22.082031 -0.958984,0 34.796875,-34.785156 c 1.360263,-0.771082 2.489351,-1.899075 3.259765,-3.259766 L 92.28125,43.873047 Z m 0,1.445312 0,0.9375 -19.769531,19.759766 c -0.470696,0.106229 -0.927222,0.247946 -1.365235,0.427734 l 21.134766,-21.125 z m -74.646484,1.355469 c -0.189067,0.45125 -0.334689,0.923763 -0.445313,1.410156 l -9.470703,9.464844 0,-0.960937 9.916016,-9.914063 z m 48.814453,0.04102 c -0.18305,0.443233 -0.325983,0.905993 -0.433594,1.382812 l -44.199219,44.183594 -0.943359,0 45.576172,-45.566406 z m 25.832031,0.03125 0,0.951172 -18.121094,18.113281 c -0.3539,0.01034 -0.701015,0.04393 -1.042968,0.0957 L 92.28125,46.746094 Z m 0,1.425781 0,0.966797 -16.748047,16.740234 c -0.29422,-0.0382 -0.593722,-0.06062 -0.896484,-0.06836 L 92.28125,48.171875 Z m -75.201172,0.505859 c -0.05329,0.345013 -0.08658,0.695487 -0.09766,1.052735 l -9.263672,9.257812 0,-0.955078 9.361328,-9.355469 z m 48.828125,0.0059 c -0.05343,0.347532 -0.08706,0.70063 -0.09766,1.060547 l -42.554688,42.537109 -0.964843,0 43.617187,-43.597656 z m 26.373047,0.921875 0,0.966797 -15.552734,15.548828 c -0.25764,-0.07176 -0.518395,-0.131876 -0.785157,-0.179688 L 92.28125,49.605469 Z m -26.472656,0.609375 c 0.0076,0.307287 0.03136,0.609709 0.07031,0.908203 l -41.166015,41.158203 -0.976563,0 42.072266,-42.066406 z m -48.830078,0.0039 c 0.0076,0.300568 0.03077,0.596509 0.06836,0.888672 l -9.328125,9.324219 0,-0.955079 9.259766,-9.257812 z m 75.302734,0.824219 0,0.951172 L 77.785156,66.48246 C 77.559059,66.38628 77.325358,66.303523 77.089844,66.2266 L 92.28125,51.042969 Z m -26.339844,0.486328 c 0.0472,0.263003 0.107249,0.52125 0.177735,0.775391 l -39.998047,39.976562 -0.949219,0 40.769531,-40.751953 z m -48.830078,0.0039 c 0.04649,0.258406 0.106797,0.511867 0.175781,0.761719 l -9.568359,9.5625 0,-0.935547 9.392578,-9.388672 z m 75.169922,0.949219 0,0.955078 -13.537109,13.535156 c -0.203853,-0.118906 -0.412902,-0.227936 -0.626953,-0.33011 L 92.28125,52.482422 Z m -74.884766,0.193359 c 0.07708,0.23598 0.159446,0.468789 0.25586,0.695313 l -9.933594,9.929687 0,-0.949219 9.677734,-9.675781 z m 48.832032,0.0059 c 0.07779,0.237572 0.162378,0.471247 0.259765,0.699218 l -38.910156,38.900391 -0.958984,0 39.609375,-39.599609 z m -48.419922,1.009765 c 0.102506,0.215478 0.21066,0.427643 0.330078,0.632813 L 7.71875,64.740234 l 0,-0.96289 10.089844,-10.085938 z m 48.83789,0.01953 c 0.100143,0.209188 0.208108,0.413847 0.324219,0.613281 l -37.974609,37.957031 -0.939453,0 38.589843,-38.570312 z m 25.634766,0.216796 0,0.9375 -12.683594,12.677735 C 79.418773,67.407838 79.236244,67.277364 79.046875,67.15625 L 92.28125,53.927734 Z m -73.964844,0.689454 c 0.124661,0.195834 0.258821,0.383697 0.398438,0.568359 L 7.71875,66.177734 l 0,-0.964843 10.597656,-10.595703 z m 48.839844,0.01367 c 0.1228,0.192088 0.25341,0.377296 0.390625,0.558594 l -37.103516,37.091797 -0.945312,0 37.658203,-37.650391 z m 25.125,0.726563 0,0.949219 -11.902344,11.898437 c -0.1616,-0.155232 -0.324752,-0.308811 -0.498047,-0.451172 L 92.28125,55.357422 Z m -73.365234,0.0957 c 0.142214,0.173693 0.294092,0.33996 0.449218,0.501953 L 7.71875,67.595703 l 0,-0.951172 11.197266,-11.191406 z m 48.835937,0.0098 c 0.144123,0.175554 0.299707,0.342301 0.457031,0.505859 l -36.328125,36.3125 -0.964843,0 36.835937,-36.818359 z m -48.142578,0.736328 c 0.162882,0.157054 0.327132,0.311133 0.501953,0.455078 L 7.71875,69.042969 l 0,-0.957031 11.890625,-11.886719 z m 48.833984,0.0039 c 0.16465,0.158555 0.330989,0.313818 0.507813,0.458984 l -35.625,35.619141 -0.964844,0 36.082031,-36.078125 z m 23.837891,0.580078 0,0.964844 -11.205078,11.201172 C 80.931167,68.7728 80.775539,68.605873 80.617188,68.4415 L 92.28125,56.783203 Z m -23.0625,0.07813 c 0.181919,0.137979 0.367738,0.271081 0.560547,0.394531 l -35.044922,35.025391 -0.949219,0 35.433594,-35.419922 z m -48.826172,0.002 c 0.178276,0.135077 0.360099,0.26558 0.548828,0.386719 L 7.71875,70.466797 l 0,-0.935547 12.673828,-12.667969 z m 0.855469,0.572266 c 0.202243,0.118242 0.408782,0.228282 0.621094,0.330078 L 7.71875,71.910156 l 0,-0.947265 13.529297,-13.527344 z m 48.835937,0.0039 c 0.203333,0.118656 0.411513,0.22804 0.625,0.330078 l -34.517578,34.511719 -0.958984,0 34.851562,-34.841797 z m -47.892578,0.480469 c 0.227996,0.09781 0.463539,0.183515 0.701172,0.261719 L 7.71875,73.349609 l 0,-0.96289 14.472656,-14.466797 z m 48.847656,0.0098 c 0.222289,0.09475 0.452181,0.17777 0.683594,0.253906 l -34.113281,34.097656 -0.939453,0 34.36914,-34.351562 z m 6.652344,0.03906 -34.332031,34.3125 -0.949219,0 33.892578,-33.878906 c 0.478863,-0.107148 0.943574,-0.250397 1.388672,-0.433594 z m -48.849609,0.0059 -21.123047,21.113282 0,-0.9375 19.759766,-19.748047 c 0.470174,-0.105534 0.925637,-0.248815 1.363281,-0.427735 z m 63.439453,0.244141 0,0.976562 -10.601562,10.59961 c -0.12598,-0.197659 -0.261127,-0.387961 -0.402344,-0.574219 L 92.28125,58.21875 Z m -69.025391,0.07031 c 0.26089,0.07321 0.524647,0.134965 0.794922,0.183594 L 7.71875,74.800781 l 0,-0.976562 15.537109,-15.535157 z m 48.84961,0.0059 c 0.253378,0.07045 0.509283,0.130437 0.771484,0.177734 l -33.820312,33.808594 -0.945313,0 33.994141,-33.986328 z M 26.882812,58.508063 7.71875,77.66822 l 0,-0.958985 18.109375,-18.103515 c 0.357949,-0.01 0.708938,-0.04531 1.054687,-0.09766 z m 48.830079,0 -33.78711,33.773438 -0.951172,0 L 74.65625,58.60572 c 0.358134,-0.01 0.710718,-0.04528 1.056641,-0.09766 z m -51.25586,0.02734 c 0.289092,0.03786 0.583487,0.06185 0.88086,0.07031 L 7.71875,76.214844 l 0,-0.949219 16.738281,-16.730469 z m 48.833985,0 c 0.294023,0.03837 0.591963,0.06236 0.894531,0.07031 l -33.691406,33.675781 -0.964844,0 L 73.291016,58.5354 Z m 18.990234,1.128906 0,0.949219 -10.097656,10.091797 C 82.082145,70.49305 81.973315,70.28599 81.855469,70.083984 L 92.28125,59.664062 Z m 0,1.441407 0,0.957031 -9.677734,9.675781 c -0.07754,-0.237379 -0.160715,-0.471411 -0.257813,-0.699219 l 9.935547,-9.933593 z m 0,1.443359 0,0.9375 -9.394531,9.388672 c -0.04665,-0.258235 -0.104714,-0.512038 -0.173828,-0.761719 l 9.568359,-9.564453 z m 0,1.431641 0,0.949219 -9.261719,9.257812 c -0.0078,-0.297853 -0.02915,-0.59127 -0.06641,-0.880859 l 9.328125,-9.326172 z m 0,1.423828 0,0.964844 -9.357422,9.353515 c 0.05295,-0.347083 0.08547,-0.701143 0.0957,-1.060547 l 9.261719,-9.257812 z m 0,1.4375 0,0.964844 -9.904297,9.902343 c 0.186591,-0.450493 0.332844,-0.921043 0.441406,-1.40625 l 9.462891,-9.460937 z m 0,1.431641 0,0.949218 -23.070312,23.058594 -0.949219,0 L 78.609375,81.9397 c 1.393541,-0.778712 2.548729,-1.933065 3.328125,-3.326172 l 10.34375,-10.34009 z m 0,1.443359 0,0.957031 -21.613281,21.607422 -0.958985,0 22.572266,-22.564453 z m -74.650391,1.382812 c -0.188178,0.450948 -0.335418,0.92227 -0.445312,1.408203 L 7.859375,81.830325 C 7.817934,81.543277 7.784913,81.254431 7.763672,80.961185 l 9.867187,-9.861329 z m 48.814453,0.04297 c -0.180314,0.438663 -0.323172,0.895713 -0.429687,1.367188 l -19.78125,19.771484 -0.939453,0 21.15039,-21.138672 z m 25.835938,0.01367 0,0.939453 -20.195312,20.185547 -0.939454,0 21.134766,-21.125 z m 0,1.4375 0,0.947266 -18.748047,18.740234 -0.945312,0 19.693359,-19.6875 z m -75.201172,0.494141 c -0.05403,0.348757 -0.08678,0.703194 -0.09766,1.064453 L 8.0976562,83.037109 C 8.0324698,82.775546 7.9719263,82.512158 7.9238281,82.244141 l 9.1562499,-9.15625 z m 48.826172,0.02734 c -0.05185,0.341935 -0.08529,0.689083 -0.0957,1.042969 l -18.128906,18.123047 -0.945313,0 19.169922,-19.166016 z m 26.375,0.898438 0,0.964844 -17.310547,17.302734 -0.966797,0 18.277344,-18.267578 z m -75.302734,0.605469 c 0.007,0.298619 0.02778,0.594407 0.06445,0.884765 L 8.4199189,84.12329 c -0.08309,-0.236713 -0.159804,-0.47555 -0.2285157,-0.71875 l 8.7871098,-8.785156 z m 48.830078,0.01367 c 0.0076,0.303373 0.03016,0.603634 0.06836,0.898438 l -16.757812,16.75 -0.964844,0 17.654297,-17.648438 z m 26.472656,0.820313 0,0.957031 -15.878906,15.871094 -0.951172,0 16.830078,-16.828125 z m -75.171875,0.480469 c 0.04714,0.264765 0.107004,0.523491 0.177734,0.779297 L 8.8378906,85.162109 C 8.7360576,84.940076 8.6414264,84.715349 8.5527344,84.486328 l 8.5566406,-8.552734 z m 48.832031,0.0098 c 0.0477,0.266134 0.108152,0.526147 0.179688,0.783203 l -15.556641,15.554688 -0.964844,0 16.341797,-16.337891 z m 26.339844,0.951172 0,0.947266 -14.445312,14.439453 -0.947266,0 15.392578,-15.386719 z m -74.884766,0.191407 c 0.07602,0.233081 0.155121,0.465581 0.25,0.689453 L 9.3164062,86.103516 C 9.2014109,85.901239 9.0957563,85.693708 8.9921875,85.484375 l 8.4042965,-8.398437 z m 48.830078,0 c 0.07675,0.235322 0.157937,0.469383 0.253907,0.695312 l -14.507813,14.5 -0.949218,0 15.203124,-15.195312 z m -48.417968,1.02539 c 0.100737,0.211485 0.209132,0.417589 0.326172,0.619141 L 9.8691406,86.994141 C 9.7397454,86.806193 9.6228354,86.609466 9.5039062,86.414062 l 8.3046878,-8.302734 z m 48.832031,0.0039 c 0.102245,0.214368 0.213039,0.422808 0.332031,0.626954 l -13.542968,13.539062 -0.958985,0 14.169922,-14.166016 z m 25.640625,0.22461 0,0.957031 -12.988281,12.984375 -0.958985,0 13.947266,-13.941406 z m -73.966797,0.685547 c 0.124468,0.195833 0.257067,0.385633 0.396485,0.570312 l -8.226563,8.220703 C 10.338462,87.63881 10.206146,87.450038 10.070312,87.263943 l 8.244141,-8.238281 z m 48.839844,0.01758 c 0.121309,0.189885 0.251321,0.37338 0.386719,0.552734 l -12.69336,12.685547 -0.939453,0 13.246094,-13.238281 z m 25.126953,0.734375 0,0.285156 c 0,0.232195 -0.02247,0.458562 -0.03516,0.6875 l -11.5,11.498047 c -0.227628,0.01254 -0.452748,0.0332 -0.683594,0.0332 l -0.291016,0 12.509766,-12.503906 z m -73.367188,0.08984 c 0.142934,0.17468 0.297139,0.339099 0.453126,0.501953 l -8.203126,8.199218 c -0.156622,-0.161548 -0.305576,-0.32998 -0.453124,-0.5 l 8.203124,-8.201171 z m 48.839844,0.01367 c 0.141777,0.172584 0.294675,0.335108 0.449219,0.496094 l -11.908203,11.904297 -0.945313,0 12.404297,-12.400391 z m -48.146484,0.732422 c 0.160921,0.155224 0.323508,0.308742 0.496094,0.451172 l -8.201172,8.199219 c -0.16885,-0.147475 -0.33762,-0.294718 -0.498047,-0.451172 l 8.203125,-8.199219 z m 48.832031,0 c 0.164247,0.158379 0.329475,0.315892 0.505859,0.460938 l -11.21289,11.207031 -0.964844,0 11.671875,-11.667969 z m -48.050781,0.664063 c 0.18236,0.138314 0.369197,0.270817 0.5625,0.394531 l -8.238281,8.238281 C 12.528621,89.774948 12.340218,89.645112 12.164062,89.5 l 8.22461,-8.222656 z m 48.830078,0 c 0.186204,0.141229 0.376615,0.276345 0.574219,0.402344 l -10.603516,10.601562 -0.976562,0 11.005859,-11.003906 z m 23.001953,0 c -0.03691,0.376444 -0.09593,0.745849 -0.166015,1.111328 l -9.669922,9.666016 c -0.365507,0.06997 -0.734862,0.129217 -1.111328,0.166015 L 92.220703,81.277344 Z M 21.25,81.853516 c 0.200258,0.116998 0.405108,0.225291 0.615234,0.326172 l -8.304687,8.300781 C 13.366348,90.361621 13.171169,90.244437 12.984375,90.115234 L 21.25,81.853516 Z m 48.830078,0.002 c 0.201668,0.117754 0.409427,0.224763 0.621094,0.326172 l -10.103516,10.099609 -0.949218,0 10.43164,-10.425781 z m -47.878906,0.486328 c 0.224828,0.0961 0.457228,0.17881 0.691406,0.255859 l -8.402344,8.398438 c -0.208858,-0.103932 -0.415389,-0.210852 -0.617187,-0.326172 l 8.328125,-8.328125 z m 48.835937,0.002 c 0.227809,0.09718 0.461833,0.180193 0.699219,0.257812 l -9.68164,9.679688 -0.958985,0 9.941406,-9.9375 z m 6.669922,0.03516 -9.904297,9.902344 -0.964843,0 9.464843,-9.462891 c 0.484381,-0.108377 0.954506,-0.253306 1.404297,-0.439453 z M 28.847656,82.388672 19,92.234375 c -0.290772,-0.02198 -0.576689,-0.05776 -0.861328,-0.09961 l 9.314453,-9.310547 c 0.481313,-0.106464 0.947179,-0.252301 1.394531,-0.435547 z m -5.589844,0.316406 c 0.257061,0.07206 0.517028,0.133432 0.783204,0.181641 L 15.486328,91.4375 c -0.229856,-0.08965 -0.454953,-0.186166 -0.677734,-0.289062 l 8.449218,-8.44336 z m 48.851563,0.0059 c 0.249779,0.06928 0.503369,0.12899 0.761719,0.175781 l -9.398438,9.394531 -0.939453,0 9.576172,-9.570312 z m 3.609375,0.21289 -9.361328,9.357422 -0.966797,0 9.267578,-9.261719 c 0.35943,-0.01007 0.713427,-0.04291 1.060547,-0.0957 z m -48.867188,0.0059 -9.144531,9.138671 c -0.260756,-0.04788 -0.51688,-0.107801 -0.771484,-0.171875 l 8.878906,-8.876953 c 0.351803,-0.0092 0.697028,-0.03964 1.037109,-0.08984 z m -2.396484,0.02148 c 0.294139,0.03859 0.593781,0.06021 0.896484,0.06836 l -8.783203,8.783203 c -0.247446,-0.07052 -0.489775,-0.150916 -0.730468,-0.236328 l 8.617187,-8.615234 z m 48.84961,0.002 c 0.289574,0.03732 0.583016,0.05858 0.880859,0.06641 l -9.265625,9.261719 -0.945313,0 9.330079,-9.328125 z m 18.607421,0.04883 c -0.117612,0.478027 -0.261779,0.944657 -0.433593,1.398438 l -7.080078,7.080078 c -0.454939,0.172146 -0.92305,0.315927 -1.402344,0.433593 l 8.916015,-8.912109 z m -0.78125,2.226563 c -0.428263,0.919051 -0.958849,1.780038 -1.591797,2.55664 l -1.755859,1.75586 c -0.776707,0.632744 -1.637528,1.163745 -2.556641,1.591796 l 5.904297,-5.904296 z"
     id="path6930"
     inkscape:connector-curvature="0" />
</svg>
