<?xml version="1.0" encoding="UTF-8" standalone="no"?>
<svg
   xmlns:dc="http://purl.org/dc/elements/1.1/"
   xmlns:cc="http://creativecommons.org/ns#"
   xmlns:rdf="http://www.w3.org/1999/02/22-rdf-syntax-ns#"
   xmlns:svg="http://www.w3.org/2000/svg"
   xmlns="http://www.w3.org/2000/svg"
   xmlns:sodipodi="http://sodipodi.sourceforge.net/DTD/sodipodi-0.dtd"
   xmlns:inkscape="http://www.inkscape.org/namespaces/inkscape"
   xml:space="preserve"
   version="1.1"
   style="clip-rule:evenodd;fill-rule:evenodd;image-rendering:optimizeQuality;shape-rendering:geometricPrecision;text-rendering:geometricPrecision"
   viewBox="0 0 240 200"
   x="0px"
   y="0px"
   id="svg4136"
   inkscape:version="0.91 r13725"
   sodipodi:docname="noun_Dice_1944263.svg"
   width="240"
   height="200"><metadata
     id="metadata4200"><rdf:RDF><cc:Work
         rdf:about=""><dc:format>image/svg+xml</dc:format><dc:type
           rdf:resource="http://purl.org/dc/dcmitype/StillImage" /><dc:title></dc:title></cc:Work></rdf:RDF></metadata><sodipodi:namedview
     pagecolor="#ffffff"
     bordercolor="#666666"
     borderopacity="1"
     objecttolerance="10"
     gridtolerance="10"
     guidetolerance="10"
     inkscape:pageopacity="0"
     inkscape:pageshadow="2"
     inkscape:window-width="1680"
     inkscape:window-height="987"
     id="namedview4198"
     showgrid="false"
     inkscape:zoom="3.5304348"
     inkscape:cx="117.5"
     inkscape:cy="115"
     inkscape:window-x="1672"
     inkscape:window-y="-8"
     inkscape:window-maximized="1"
     inkscape:current-layer="svg4136" /><defs
     id="defs4138"><style
       type="text/css"
       id="style4140">
   
    .fil1 {fill:black}
    .fil0 {fill:black}
    .fil2 {fill:black;fill-rule:nonzero}
   
  </style></defs><g
     id="g4142"
     transform="translate(2.4244923,8.125)"><path
       class="fil0"
       d="m 119,109 0,46 c 0,2 -1,4 -2,5 l -40,23 c -1,1 -3,1 -5,0 L 32,160 c -2,-1 -3,-2 -3,-4 l 0,-46 c 0,-2 1,-3 3,-4 L 71,82 c 2,-1 4,-1 5,0 l 40,23 c 2,1 3,2 3,4 z m -41,22 34,20 0,-41 -35,-19 1,40 z m 30,26 -34,-20 -33,20 33,19 34,-19 z m -72,-5 35,-21 -1,-40 -34,20 0,41 z"
       id="path4144"
       inkscape:connector-curvature="0"
       style="fill:#000000" /><circle
       class="fil1"
       transform="matrix(-0.396751,0.013734,-0.201041,-0.48154,99.7624,132.363)"
       r="14"
       id="circle4146"
       cx="0"
       cy="0"
       style="fill:#000000" /><circle
       class="fil1"
       transform="matrix(-0.380457,0.0113156,-0.180775,-0.473592,87.7405,106.711)"
       r="14"
       id="circle4148"
       cx="0"
       cy="0"
       style="fill:#000000" /><circle
       class="fil1"
       transform="matrix(0.436815,0.0553304,-0.143385,0.293931,74.1515,146.788)"
       r="14"
       id="circle4150"
       cx="0"
       cy="0"
       style="fill:#000000" /><circle
       class="fil1"
       transform="matrix(0.436815,0.0553304,-0.143385,0.293931,57.0521,157.205)"
       r="14"
       id="circle4152"
       cx="0"
       cy="0"
       style="fill:#000000" /><circle
       class="fil1"
       transform="matrix(0.436815,0.0553304,-0.143385,0.293931,90.8429,156.363)"
       r="14"
       id="circle4154"
       cx="0"
       cy="0"
       style="fill:#000000" /><circle
       class="fil1"
       transform="matrix(0.436815,0.0553304,-0.143385,0.293931,73.7434,166.781)"
       r="14"
       id="circle4156"
       cx="0"
       cy="0"
       style="fill:#000000" /><circle
       class="fil1"
       transform="matrix(-0.389522,0.351064,0.161561,0.482635,52.2225,122.411)"
       r="14"
       id="circle4158"
       cx="0"
       cy="0"
       style="fill:#000000" /><path
       class="fil2"
       d="M 8,107 C 9,96 15,88 24,82 l 3,4 c -8,5 -13,12 -14,21 l -5,0 z"
       id="path4160"
       inkscape:connector-curvature="0"
       style="fill:#000000;fill-rule:nonzero" /><path
       class="fil2"
       d="M 0,102 C 1,91 7,82 16,77 l 2,3 C 10,85 5,92 5,102 l -5,0 z"
       id="path4162"
       inkscape:connector-curvature="0"
       style="fill:#000000;fill-rule:nonzero" /><path
       class="fil0"
       d="m 197,84 -43,16 c -1,1 -3,1 -5,0 L 114,71 c -2,-2 -2,-4 -2,-5 l 8,-46 c 0,-1 1,-3 3,-4 L 166,0 c 2,0 3,0 5,1 l 35,29 c 2,2 2,3 2,5 l -7,45 c -1,2 -2,4 -4,4 z m -35,-31 -6,39 38,-14 6,-39 -38,14 z m -13,38 7,-39 -31,-24 -6,38 30,25 z M 129,21 160,47 198,33 167,7 129,21 Z"
       id="path4164"
       inkscape:connector-curvature="0"
       style="fill:#000000" /><circle
       class="fil1"
       transform="matrix(-0.122943,-0.304718,0.317671,-0.292626,165.843,79.9936)"
       r="14"
       id="circle4166"
       cx="0"
       cy="0"
       style="fill:#000000" /><circle
       class="fil1"
       transform="matrix(-0.116452,-0.292728,0.317223,-0.274614,190.255,51.6323)"
       r="14"
       id="circle4168"
       cx="0"
       cy="0"
       style="fill:#000000" /><circle
       class="fil1"
       transform="matrix(0.0973294,0.429413,-0.325239,-0.0342654,146.767,55.3285)"
       r="14"
       id="circle4170"
       cx="0"
       cy="0"
       style="fill:#000000" /><circle
       class="fil1"
       transform="matrix(0.0973294,0.429413,-0.325239,-0.0342654,131.131,42.8205)"
       r="14"
       id="circle4172"
       cx="0"
       cy="0"
       style="fill:#000000" /><circle
       class="fil1"
       transform="matrix(0.0973294,0.429413,-0.325239,-0.0342654,143.474,74.2877)"
       r="14"
       id="circle4174"
       cx="0"
       cy="0"
       style="fill:#000000" /><circle
       class="fil1"
       transform="matrix(0.0973294,0.429413,-0.325239,-0.0342654,127.839,61.7797)"
       r="14"
       id="circle4176"
       cx="0"
       cy="0"
       style="fill:#000000" /><circle
       class="fil1"
       transform="matrix(-0.116452,-0.292728,0.317223,-0.274614,178.701,65.4541)"
       r="14"
       id="circle4178"
       cx="0"
       cy="0"
       style="fill:#000000" /><circle
       class="fil1"
       transform="matrix(-0.340961,-0.202917,-0.293289,0.21456,142.589,23.1566)"
       r="14"
       id="circle4180"
       cx="0"
       cy="0"
       style="fill:#000000" /><circle
       class="fil1"
       transform="matrix(-0.340961,-0.202917,-0.293289,0.21456,162.497,38.322)"
       r="14"
       id="circle4182"
       cx="0"
       cy="0"
       style="fill:#000000" /><circle
       class="fil1"
       transform="matrix(-0.340961,-0.202917,-0.293289,0.21456,184.571,30.4811)"
       r="14"
       id="circle4184"
       cx="0"
       cy="0"
       style="fill:#000000" /><circle
       class="fil1"
       transform="matrix(-0.340961,-0.188949,-0.293289,0.19979,165.592,14.3201)"
       r="14"
       id="circle4186"
       cx="0"
       cy="0"
       style="fill:#000000" /><circle
       class="fil1"
       transform="matrix(-0.340961,-0.202917,-0.293289,0.21456,164.353,25.5295)"
       r="14"
       id="circle4188"
       cx="0"
       cy="0"
       style="fill:#000000" /><path
       class="fil2"
       d="m 215,17 c 8,7 11,17 10,28 l -4,-1 c 1,-9 -2,-17 -9,-23 l 3,-4 z"
       id="path4190"
       inkscape:connector-curvature="0"
       style="fill:#000000;fill-rule:nonzero" /><path
       class="fil2"
       d="m 224,14 c 8,7 12,16 11,27 l -5,0 c 1,-9 -2,-18 -9,-24 l 3,-3 z"
       id="path4192"
       inkscape:connector-curvature="0"
       style="fill:#000000;fill-rule:nonzero" /></g></svg>